G04*
G04 #@! TF.GenerationSoftware,Altium Limited,Altium Designer,22.5.1 (42)*
G04*
G04 Layer_Color=65535*
%FSLAX44Y44*%
%MOMM*%
G71*
G04*
G04 #@! TF.SameCoordinates,E804C49B-AF08-44B7-9E18-E1C260B47F38*
G04*
G04*
G04 #@! TF.FilePolarity,Positive*
G04*
G01*
G75*
%ADD10C,0.2000*%
G36*
X344222Y396871D02*
X348351D01*
Y394741D01*
X344222D01*
Y390612D01*
X342129D01*
Y394741D01*
X338000D01*
Y396871D01*
X342129D01*
Y401000D01*
X344222D01*
Y396871D01*
D02*
G37*
G36*
X351871Y105259D02*
X356000D01*
Y103129D01*
X351871D01*
Y99000D01*
X349778D01*
Y103129D01*
X345649D01*
Y105259D01*
X349778D01*
Y109388D01*
X351871D01*
Y105259D01*
D02*
G37*
G36*
X459782Y392308D02*
Y392289D01*
Y392215D01*
Y392104D01*
X459764Y391937D01*
X459745Y391752D01*
X459708Y391548D01*
X459671Y391308D01*
X459616Y391048D01*
X459560Y390771D01*
X459467Y390493D01*
X459375Y390215D01*
X459245Y389919D01*
X459097Y389641D01*
X458930Y389382D01*
X458727Y389123D01*
X458504Y388882D01*
X458486Y388863D01*
X458449Y388826D01*
X458375Y388771D01*
X458264Y388697D01*
X458134Y388604D01*
X457968Y388512D01*
X457782Y388401D01*
X457560Y388289D01*
X457301Y388178D01*
X457023Y388067D01*
X456708Y387975D01*
X456375Y387882D01*
X456005Y387808D01*
X455616Y387752D01*
X455190Y387715D01*
X454727Y387697D01*
X454486D01*
X454320Y387715D01*
X454116Y387734D01*
X453894Y387752D01*
X453635Y387789D01*
X453357Y387845D01*
X452746Y387975D01*
X452431Y388086D01*
X452135Y388197D01*
X451820Y388326D01*
X451524Y388475D01*
X451246Y388660D01*
X450987Y388863D01*
X450968Y388882D01*
X450931Y388919D01*
X450876Y388993D01*
X450783Y389086D01*
X450690Y389197D01*
X450579Y389345D01*
X450468Y389530D01*
X450339Y389734D01*
X450228Y389956D01*
X450098Y390215D01*
X449987Y390493D01*
X449894Y390808D01*
X449802Y391141D01*
X449746Y391493D01*
X449709Y391882D01*
X449691Y392289D01*
Y400010D01*
X452709D01*
Y392474D01*
Y392456D01*
Y392419D01*
Y392363D01*
Y392271D01*
X452727Y392048D01*
X452764Y391771D01*
X452820Y391456D01*
X452912Y391160D01*
X453024Y390863D01*
X453172Y390604D01*
X453190Y390586D01*
X453264Y390512D01*
X453375Y390419D01*
X453542Y390308D01*
X453764Y390178D01*
X454024Y390086D01*
X454357Y390011D01*
X454727Y389993D01*
X454820D01*
X454894Y390011D01*
X455079Y390030D01*
X455301Y390067D01*
X455560Y390141D01*
X455820Y390234D01*
X456060Y390382D01*
X456264Y390567D01*
X456283Y390604D01*
X456338Y390678D01*
X456431Y390826D01*
X456523Y391030D01*
X456597Y391289D01*
X456690Y391623D01*
X456745Y392011D01*
X456764Y392474D01*
Y400010D01*
X459782D01*
Y392308D01*
D02*
G37*
G36*
X430156Y394307D02*
X434285D01*
Y392215D01*
X430156D01*
Y388086D01*
X428026D01*
Y392215D01*
X423897D01*
Y394307D01*
X428026D01*
Y398437D01*
X430156D01*
Y394307D01*
D02*
G37*
G36*
X476540Y400214D02*
X476725Y400196D01*
X476929Y400177D01*
X477151Y400159D01*
X477410Y400122D01*
X477929Y399992D01*
X478465Y399825D01*
X478743Y399714D01*
X478984Y399585D01*
X479225Y399436D01*
X479447Y399270D01*
X479465Y399251D01*
X479502Y399233D01*
X479558Y399177D01*
X479613Y399085D01*
X479706Y398992D01*
X479799Y398881D01*
X479891Y398733D01*
X480002Y398566D01*
X480113Y398400D01*
X480206Y398196D01*
X480299Y397974D01*
X480391Y397733D01*
X480447Y397474D01*
X480502Y397196D01*
X480539Y396900D01*
X480558Y396585D01*
Y396566D01*
Y396529D01*
Y396474D01*
Y396400D01*
X480539Y396307D01*
Y396196D01*
X480502Y395918D01*
X480428Y395603D01*
X480336Y395252D01*
X480206Y394881D01*
X480039Y394492D01*
Y394474D01*
X480021Y394455D01*
X479984Y394400D01*
X479947Y394307D01*
X479891Y394215D01*
X479817Y394104D01*
X479650Y393844D01*
X479410Y393511D01*
X479132Y393141D01*
X478780Y392733D01*
X478373Y392308D01*
X478336Y392271D01*
X478243Y392178D01*
X478114Y392048D01*
X477929Y391882D01*
X477706Y391678D01*
X477484Y391456D01*
X476966Y391011D01*
X476929Y390993D01*
X476855Y390919D01*
X476725Y390826D01*
X476577Y390715D01*
X476262Y390456D01*
X476095Y390326D01*
X475966Y390234D01*
X481076D01*
Y387956D01*
X472225D01*
Y389919D01*
X472244Y389937D01*
X472281Y389956D01*
X472336Y390011D01*
X472411Y390067D01*
X472633Y390234D01*
X472892Y390456D01*
X473207Y390715D01*
X473540Y390993D01*
X473892Y391289D01*
X474225Y391585D01*
X474244Y391604D01*
X474262Y391623D01*
X474373Y391715D01*
X474540Y391882D01*
X474762Y392067D01*
X475021Y392308D01*
X475281Y392567D01*
X475558Y392826D01*
X475818Y393104D01*
X475836Y393122D01*
X475855Y393141D01*
X475966Y393252D01*
X476114Y393437D01*
X476317Y393659D01*
X476521Y393900D01*
X476725Y394178D01*
X476929Y394455D01*
X477095Y394733D01*
X477114Y394770D01*
X477151Y394863D01*
X477225Y394992D01*
X477299Y395178D01*
X477373Y395400D01*
X477447Y395641D01*
X477484Y395900D01*
X477503Y396177D01*
Y396196D01*
Y396215D01*
Y396307D01*
X477484Y396474D01*
X477447Y396659D01*
X477373Y396863D01*
X477280Y397066D01*
X477151Y397270D01*
X476984Y397455D01*
X476966Y397474D01*
X476892Y397529D01*
X476780Y397603D01*
X476632Y397696D01*
X476429Y397770D01*
X476188Y397844D01*
X475910Y397900D01*
X475595Y397918D01*
X475429D01*
X475318Y397900D01*
X475188Y397881D01*
X475040Y397863D01*
X474725Y397789D01*
X474707D01*
X474651Y397770D01*
X474577Y397752D01*
X474466Y397714D01*
X474336Y397677D01*
X474207Y397622D01*
X473892Y397511D01*
X473873D01*
X473818Y397474D01*
X473744Y397437D01*
X473651Y397400D01*
X473429Y397270D01*
X473188Y397122D01*
X473170D01*
X473133Y397085D01*
X473022Y397011D01*
X472873Y396918D01*
X472744Y396844D01*
X472522D01*
Y399473D01*
X472540Y399492D01*
X472614Y399510D01*
X472744Y399566D01*
X472910Y399622D01*
X473133Y399696D01*
X473392Y399788D01*
X473725Y399881D01*
X474095Y399973D01*
X474114D01*
X474151Y399992D01*
X474207D01*
X474281Y400010D01*
X474373Y400029D01*
X474503Y400047D01*
X474762Y400103D01*
X475095Y400159D01*
X475447Y400196D01*
X475818Y400214D01*
X476188Y400233D01*
X476392D01*
X476540Y400214D01*
D02*
G37*
G36*
X470985Y397714D02*
X467430D01*
Y387956D01*
X464411D01*
Y397714D01*
X460856D01*
Y400010D01*
X470985D01*
Y397714D01*
D02*
G37*
G36*
X442488Y400251D02*
X442673D01*
X442914Y400214D01*
X443173Y400177D01*
X443469Y400122D01*
X443784Y400066D01*
X444117Y399973D01*
X444469Y399862D01*
X444821Y399714D01*
X445191Y399566D01*
X445543Y399362D01*
X445876Y399140D01*
X446209Y398881D01*
X446506Y398585D01*
X446524Y398566D01*
X446580Y398511D01*
X446654Y398418D01*
X446746Y398270D01*
X446876Y398103D01*
X447006Y397900D01*
X447154Y397659D01*
X447302Y397381D01*
X447432Y397066D01*
X447580Y396715D01*
X447709Y396344D01*
X447839Y395937D01*
X447932Y395492D01*
X448006Y395011D01*
X448061Y394511D01*
X448080Y393974D01*
Y393937D01*
Y393844D01*
X448061Y393696D01*
Y393493D01*
X448024Y393252D01*
X448006Y392956D01*
X447950Y392641D01*
X447876Y392308D01*
X447802Y391937D01*
X447691Y391567D01*
X447561Y391178D01*
X447413Y390789D01*
X447228Y390419D01*
X447024Y390048D01*
X446783Y389697D01*
X446506Y389363D01*
X446487Y389345D01*
X446432Y389289D01*
X446339Y389215D01*
X446228Y389104D01*
X446061Y388975D01*
X445876Y388845D01*
X445654Y388678D01*
X445395Y388530D01*
X445098Y388382D01*
X444784Y388234D01*
X444432Y388086D01*
X444043Y387956D01*
X443636Y387845D01*
X443191Y387771D01*
X442728Y387715D01*
X442229Y387697D01*
X442117D01*
X441969Y387715D01*
X441784D01*
X441543Y387752D01*
X441284Y387789D01*
X440988Y387845D01*
X440673Y387901D01*
X440321Y387993D01*
X439969Y388104D01*
X439618Y388252D01*
X439266Y388401D01*
X438914Y388604D01*
X438562Y388826D01*
X438229Y389086D01*
X437933Y389382D01*
X437914Y389400D01*
X437859Y389456D01*
X437785Y389567D01*
X437692Y389697D01*
X437581Y389863D01*
X437451Y390067D01*
X437303Y390326D01*
X437173Y390604D01*
X437025Y390900D01*
X436877Y391252D01*
X436748Y391623D01*
X436636Y392030D01*
X436544Y392474D01*
X436470Y392956D01*
X436414Y393456D01*
X436396Y393974D01*
Y394011D01*
Y394104D01*
X436414Y394252D01*
Y394455D01*
X436451Y394696D01*
X436470Y394992D01*
X436525Y395307D01*
X436581Y395641D01*
X436674Y395992D01*
X436766Y396381D01*
X436896Y396752D01*
X437044Y397140D01*
X437229Y397511D01*
X437433Y397881D01*
X437655Y398233D01*
X437933Y398566D01*
X437951Y398585D01*
X438007Y398640D01*
X438099Y398733D01*
X438210Y398825D01*
X438377Y398955D01*
X438562Y399103D01*
X438803Y399251D01*
X439062Y399418D01*
X439340Y399585D01*
X439673Y399733D01*
X440025Y399881D01*
X440395Y400010D01*
X440821Y400122D01*
X441266Y400196D01*
X441729Y400251D01*
X442229Y400270D01*
X442358D01*
X442488Y400251D01*
D02*
G37*
G36*
X459782Y104308D02*
Y104289D01*
Y104215D01*
Y104104D01*
X459764Y103937D01*
X459745Y103752D01*
X459708Y103548D01*
X459671Y103308D01*
X459616Y103048D01*
X459560Y102771D01*
X459467Y102493D01*
X459375Y102215D01*
X459245Y101919D01*
X459097Y101641D01*
X458930Y101382D01*
X458727Y101123D01*
X458504Y100882D01*
X458486Y100864D01*
X458449Y100826D01*
X458375Y100771D01*
X458264Y100697D01*
X458134Y100604D01*
X457968Y100512D01*
X457782Y100401D01*
X457560Y100289D01*
X457301Y100178D01*
X457023Y100067D01*
X456708Y99975D01*
X456375Y99882D01*
X456005Y99808D01*
X455616Y99753D01*
X455190Y99715D01*
X454727Y99697D01*
X454486D01*
X454320Y99715D01*
X454116Y99734D01*
X453894Y99753D01*
X453635Y99789D01*
X453357Y99845D01*
X452746Y99975D01*
X452431Y100086D01*
X452135Y100197D01*
X451820Y100326D01*
X451524Y100475D01*
X451246Y100660D01*
X450987Y100864D01*
X450968Y100882D01*
X450931Y100919D01*
X450876Y100993D01*
X450783Y101086D01*
X450690Y101197D01*
X450579Y101345D01*
X450468Y101530D01*
X450339Y101734D01*
X450228Y101956D01*
X450098Y102215D01*
X449987Y102493D01*
X449894Y102808D01*
X449802Y103141D01*
X449746Y103493D01*
X449709Y103882D01*
X449691Y104289D01*
Y112010D01*
X452709D01*
Y104474D01*
Y104456D01*
Y104419D01*
Y104363D01*
Y104270D01*
X452727Y104048D01*
X452764Y103771D01*
X452820Y103456D01*
X452912Y103160D01*
X453024Y102863D01*
X453172Y102604D01*
X453190Y102585D01*
X453264Y102512D01*
X453375Y102419D01*
X453542Y102308D01*
X453764Y102178D01*
X454024Y102086D01*
X454357Y102011D01*
X454727Y101993D01*
X454820D01*
X454894Y102011D01*
X455079Y102030D01*
X455301Y102067D01*
X455560Y102141D01*
X455820Y102234D01*
X456060Y102382D01*
X456264Y102567D01*
X456283Y102604D01*
X456338Y102678D01*
X456431Y102826D01*
X456523Y103030D01*
X456597Y103289D01*
X456690Y103622D01*
X456745Y104011D01*
X456764Y104474D01*
Y112010D01*
X459782D01*
Y104308D01*
D02*
G37*
G36*
X430156Y106307D02*
X434285D01*
Y104215D01*
X430156D01*
Y100086D01*
X428026D01*
Y104215D01*
X423897D01*
Y106307D01*
X428026D01*
Y110437D01*
X430156D01*
Y106307D01*
D02*
G37*
G36*
X478077Y102067D02*
X480558D01*
Y99956D01*
X472596D01*
Y102067D01*
X475132D01*
Y108418D01*
X472596D01*
Y110381D01*
X472948D01*
X473114Y110400D01*
X473299D01*
X473688Y110437D01*
X473707D01*
X473781Y110455D01*
X473873Y110474D01*
X474003Y110492D01*
X474299Y110566D01*
X474447Y110622D01*
X474577Y110677D01*
X474595Y110696D01*
X474632Y110714D01*
X474707Y110751D01*
X474799Y110825D01*
X474984Y110974D01*
X475169Y111196D01*
X475188Y111214D01*
X475206Y111251D01*
X475244Y111325D01*
X475281Y111418D01*
X475336Y111548D01*
X475373Y111696D01*
X475410Y111844D01*
X475429Y112029D01*
X478077D01*
Y102067D01*
D02*
G37*
G36*
X470985Y109714D02*
X467430D01*
Y99956D01*
X464411D01*
Y109714D01*
X460856D01*
Y112010D01*
X470985D01*
Y109714D01*
D02*
G37*
G36*
X442488Y112251D02*
X442673D01*
X442914Y112214D01*
X443173Y112177D01*
X443469Y112122D01*
X443784Y112066D01*
X444117Y111973D01*
X444469Y111862D01*
X444821Y111714D01*
X445191Y111566D01*
X445543Y111362D01*
X445876Y111140D01*
X446209Y110881D01*
X446506Y110585D01*
X446524Y110566D01*
X446580Y110511D01*
X446654Y110418D01*
X446746Y110270D01*
X446876Y110103D01*
X447006Y109900D01*
X447154Y109659D01*
X447302Y109381D01*
X447432Y109066D01*
X447580Y108715D01*
X447709Y108344D01*
X447839Y107937D01*
X447932Y107492D01*
X448006Y107011D01*
X448061Y106511D01*
X448080Y105974D01*
Y105937D01*
Y105844D01*
X448061Y105696D01*
Y105493D01*
X448024Y105252D01*
X448006Y104956D01*
X447950Y104641D01*
X447876Y104308D01*
X447802Y103937D01*
X447691Y103567D01*
X447561Y103178D01*
X447413Y102789D01*
X447228Y102419D01*
X447024Y102049D01*
X446783Y101697D01*
X446506Y101363D01*
X446487Y101345D01*
X446432Y101289D01*
X446339Y101215D01*
X446228Y101104D01*
X446061Y100975D01*
X445876Y100845D01*
X445654Y100678D01*
X445395Y100530D01*
X445098Y100382D01*
X444784Y100234D01*
X444432Y100086D01*
X444043Y99956D01*
X443636Y99845D01*
X443191Y99771D01*
X442728Y99715D01*
X442229Y99697D01*
X442117D01*
X441969Y99715D01*
X441784D01*
X441543Y99753D01*
X441284Y99789D01*
X440988Y99845D01*
X440673Y99901D01*
X440321Y99993D01*
X439969Y100104D01*
X439618Y100252D01*
X439266Y100401D01*
X438914Y100604D01*
X438562Y100826D01*
X438229Y101086D01*
X437933Y101382D01*
X437914Y101400D01*
X437859Y101456D01*
X437785Y101567D01*
X437692Y101697D01*
X437581Y101863D01*
X437451Y102067D01*
X437303Y102326D01*
X437173Y102604D01*
X437025Y102900D01*
X436877Y103252D01*
X436748Y103622D01*
X436636Y104030D01*
X436544Y104474D01*
X436470Y104956D01*
X436414Y105456D01*
X436396Y105974D01*
Y106011D01*
Y106104D01*
X436414Y106252D01*
Y106455D01*
X436451Y106696D01*
X436470Y106993D01*
X436525Y107307D01*
X436581Y107641D01*
X436674Y107992D01*
X436766Y108381D01*
X436896Y108751D01*
X437044Y109140D01*
X437229Y109511D01*
X437433Y109881D01*
X437655Y110233D01*
X437933Y110566D01*
X437951Y110585D01*
X438007Y110640D01*
X438099Y110733D01*
X438210Y110825D01*
X438377Y110955D01*
X438562Y111103D01*
X438803Y111251D01*
X439062Y111418D01*
X439340Y111585D01*
X439673Y111733D01*
X440025Y111881D01*
X440395Y112010D01*
X440821Y112122D01*
X441266Y112196D01*
X441729Y112251D01*
X442229Y112270D01*
X442358D01*
X442488Y112251D01*
D02*
G37*
G36*
X437833Y271517D02*
X438166Y271499D01*
X438573Y271462D01*
X438981Y271406D01*
X439388Y271332D01*
X439758Y271239D01*
X439777D01*
X439795Y271221D01*
X439851Y271203D01*
X439925Y271184D01*
X440110Y271128D01*
X440351Y271036D01*
X440647Y270925D01*
X440980Y270795D01*
X441351Y270647D01*
X441721Y270462D01*
Y267647D01*
X441425D01*
X441406Y267684D01*
X441351Y267721D01*
X441277Y267777D01*
X441184Y267832D01*
X441091Y267906D01*
X440814Y268110D01*
X440795Y268129D01*
X440740Y268166D01*
X440666Y268221D01*
X440555Y268295D01*
X440314Y268462D01*
X440018Y268647D01*
X439999Y268666D01*
X439944Y268684D01*
X439832Y268740D01*
X439721Y268795D01*
X439555Y268869D01*
X439370Y268943D01*
X439184Y269018D01*
X438962Y269092D01*
X438944D01*
X438851Y269129D01*
X438740Y269147D01*
X438592Y269184D01*
X438388Y269221D01*
X438184Y269240D01*
X437944Y269277D01*
X437573D01*
X437425Y269258D01*
X437240Y269240D01*
X437018Y269221D01*
X436777Y269166D01*
X436518Y269110D01*
X436277Y269018D01*
X436259Y268999D01*
X436166Y268981D01*
X436055Y268906D01*
X435907Y268832D01*
X435722Y268740D01*
X435536Y268610D01*
X435333Y268462D01*
X435148Y268277D01*
X435129Y268258D01*
X435074Y268184D01*
X434981Y268092D01*
X434888Y267943D01*
X434759Y267758D01*
X434648Y267555D01*
X434518Y267314D01*
X434407Y267036D01*
X434389Y266999D01*
X434370Y266907D01*
X434314Y266758D01*
X434277Y266536D01*
X434222Y266296D01*
X434166Y265999D01*
X434148Y265666D01*
X434129Y265314D01*
Y265296D01*
Y265222D01*
Y265110D01*
X434148Y264962D01*
X434166Y264796D01*
X434185Y264592D01*
X434222Y264370D01*
X434259Y264129D01*
X434389Y263629D01*
X434481Y263370D01*
X434574Y263111D01*
X434703Y262870D01*
X434833Y262629D01*
X435000Y262407D01*
X435185Y262203D01*
X435203Y262185D01*
X435240Y262166D01*
X435296Y262111D01*
X435370Y262055D01*
X435481Y261981D01*
X435611Y261889D01*
X435777Y261796D01*
X435944Y261703D01*
X436129Y261611D01*
X436351Y261518D01*
X436592Y261444D01*
X436851Y261352D01*
X437129Y261296D01*
X437425Y261241D01*
X437740Y261222D01*
X438073Y261203D01*
X438721D01*
X438851Y261222D01*
Y263592D01*
X436499D01*
Y265870D01*
X441777D01*
Y259926D01*
X441740Y259907D01*
X441628Y259870D01*
X441462Y259815D01*
X441221Y259722D01*
X440925Y259630D01*
X440573Y259537D01*
X440166Y259407D01*
X439703Y259296D01*
X439684D01*
X439647Y259278D01*
X439573D01*
X439481Y259259D01*
X439370Y259222D01*
X439240Y259204D01*
X438925Y259148D01*
X438536Y259093D01*
X438110Y259056D01*
X437666Y259018D01*
X437203Y259000D01*
X437073D01*
X436925Y259018D01*
X436740D01*
X436499Y259056D01*
X436222Y259093D01*
X435907Y259130D01*
X435574Y259204D01*
X435222Y259296D01*
X434851Y259407D01*
X434481Y259537D01*
X434111Y259685D01*
X433722Y259870D01*
X433370Y260093D01*
X433018Y260352D01*
X432685Y260630D01*
X432667Y260648D01*
X432611Y260704D01*
X432537Y260796D01*
X432426Y260926D01*
X432296Y261111D01*
X432148Y261315D01*
X432000Y261555D01*
X431852Y261833D01*
X431685Y262148D01*
X431537Y262481D01*
X431389Y262870D01*
X431259Y263277D01*
X431148Y263740D01*
X431074Y264222D01*
X431018Y264740D01*
X431000Y265277D01*
Y265314D01*
Y265407D01*
X431018Y265555D01*
Y265740D01*
X431055Y265981D01*
X431093Y266259D01*
X431148Y266573D01*
X431204Y266907D01*
X431296Y267258D01*
X431407Y267629D01*
X431555Y267999D01*
X431704Y268388D01*
X431907Y268758D01*
X432130Y269129D01*
X432389Y269480D01*
X432685Y269814D01*
X432704Y269832D01*
X432759Y269888D01*
X432852Y269980D01*
X433000Y270091D01*
X433166Y270221D01*
X433370Y270351D01*
X433611Y270517D01*
X433889Y270684D01*
X434203Y270832D01*
X434555Y270999D01*
X434925Y271128D01*
X435333Y271276D01*
X435777Y271369D01*
X436259Y271462D01*
X436759Y271517D01*
X437296Y271536D01*
X437685D01*
X437833Y271517D01*
D02*
G37*
G36*
X454386Y259259D02*
X451479D01*
X446813Y267647D01*
Y259259D01*
X444054D01*
Y271314D01*
X447757D01*
X451628Y264407D01*
Y271314D01*
X454386D01*
Y259259D01*
D02*
G37*
G36*
X461349Y271295D02*
X461701Y271276D01*
X462108Y271239D01*
X462515Y271203D01*
X462941Y271147D01*
X462997D01*
X463052Y271128D01*
X463126Y271110D01*
X463237Y271091D01*
X463349Y271054D01*
X463626Y270980D01*
X463941Y270888D01*
X464293Y270739D01*
X464663Y270573D01*
X465033Y270351D01*
X465052D01*
X465089Y270314D01*
X465145Y270277D01*
X465237Y270221D01*
X465441Y270036D01*
X465719Y269814D01*
X466015Y269517D01*
X466330Y269166D01*
X466626Y268758D01*
X466904Y268295D01*
Y268277D01*
X466941Y268240D01*
X466978Y268166D01*
X467015Y268073D01*
X467070Y267943D01*
X467126Y267795D01*
X467181Y267629D01*
X467256Y267444D01*
X467329Y267221D01*
X467385Y266999D01*
X467496Y266481D01*
X467570Y265888D01*
X467607Y265259D01*
Y265240D01*
Y265185D01*
Y265092D01*
X467589Y264981D01*
Y264833D01*
X467570Y264648D01*
X467552Y264462D01*
X467515Y264259D01*
X467422Y263777D01*
X467293Y263277D01*
X467107Y262759D01*
X466867Y262240D01*
Y262222D01*
X466830Y262185D01*
X466793Y262111D01*
X466737Y262018D01*
X466663Y261907D01*
X466570Y261796D01*
X466348Y261500D01*
X466089Y261166D01*
X465774Y260833D01*
X465404Y260500D01*
X464996Y260204D01*
X464978D01*
X464959Y260185D01*
X464904Y260148D01*
X464830Y260111D01*
X464645Y260000D01*
X464385Y259870D01*
X464089Y259741D01*
X463737Y259611D01*
X463349Y259500D01*
X462941Y259426D01*
X462886D01*
X462830Y259407D01*
X462756D01*
X462645Y259389D01*
X462534Y259370D01*
X462238Y259352D01*
X461886Y259315D01*
X461497Y259278D01*
X461052Y259259D01*
X456831D01*
Y271314D01*
X461034D01*
X461349Y271295D01*
D02*
G37*
G36*
X437833Y239517D02*
X438166Y239499D01*
X438573Y239462D01*
X438981Y239406D01*
X439388Y239332D01*
X439758Y239240D01*
X439777D01*
X439795Y239221D01*
X439851Y239202D01*
X439925Y239184D01*
X440110Y239128D01*
X440351Y239036D01*
X440647Y238925D01*
X440980Y238795D01*
X441351Y238647D01*
X441721Y238462D01*
Y235647D01*
X441425D01*
X441406Y235684D01*
X441351Y235721D01*
X441277Y235777D01*
X441184Y235832D01*
X441091Y235907D01*
X440814Y236110D01*
X440795Y236129D01*
X440740Y236166D01*
X440666Y236221D01*
X440555Y236295D01*
X440314Y236462D01*
X440018Y236647D01*
X439999Y236666D01*
X439944Y236684D01*
X439832Y236740D01*
X439721Y236795D01*
X439555Y236869D01*
X439370Y236943D01*
X439184Y237017D01*
X438962Y237092D01*
X438944D01*
X438851Y237129D01*
X438740Y237147D01*
X438592Y237184D01*
X438388Y237221D01*
X438184Y237240D01*
X437944Y237277D01*
X437573D01*
X437425Y237258D01*
X437240Y237240D01*
X437018Y237221D01*
X436777Y237166D01*
X436518Y237110D01*
X436277Y237017D01*
X436259Y236999D01*
X436166Y236980D01*
X436055Y236906D01*
X435907Y236832D01*
X435722Y236740D01*
X435536Y236610D01*
X435333Y236462D01*
X435148Y236277D01*
X435129Y236258D01*
X435074Y236184D01*
X434981Y236092D01*
X434888Y235944D01*
X434759Y235758D01*
X434648Y235555D01*
X434518Y235314D01*
X434407Y235036D01*
X434389Y234999D01*
X434370Y234907D01*
X434314Y234758D01*
X434277Y234536D01*
X434222Y234296D01*
X434166Y233999D01*
X434148Y233666D01*
X434129Y233314D01*
Y233296D01*
Y233222D01*
Y233111D01*
X434148Y232962D01*
X434166Y232796D01*
X434185Y232592D01*
X434222Y232370D01*
X434259Y232129D01*
X434389Y231629D01*
X434481Y231370D01*
X434574Y231111D01*
X434703Y230870D01*
X434833Y230629D01*
X435000Y230407D01*
X435185Y230203D01*
X435203Y230185D01*
X435240Y230166D01*
X435296Y230111D01*
X435370Y230055D01*
X435481Y229981D01*
X435611Y229889D01*
X435777Y229796D01*
X435944Y229703D01*
X436129Y229611D01*
X436351Y229518D01*
X436592Y229444D01*
X436851Y229352D01*
X437129Y229296D01*
X437425Y229240D01*
X437740Y229222D01*
X438073Y229203D01*
X438721D01*
X438851Y229222D01*
Y231592D01*
X436499D01*
Y233870D01*
X441777D01*
Y227926D01*
X441740Y227907D01*
X441628Y227870D01*
X441462Y227815D01*
X441221Y227722D01*
X440925Y227630D01*
X440573Y227537D01*
X440166Y227407D01*
X439703Y227296D01*
X439684D01*
X439647Y227278D01*
X439573D01*
X439481Y227259D01*
X439370Y227222D01*
X439240Y227204D01*
X438925Y227148D01*
X438536Y227093D01*
X438110Y227056D01*
X437666Y227019D01*
X437203Y227000D01*
X437073D01*
X436925Y227019D01*
X436740D01*
X436499Y227056D01*
X436222Y227093D01*
X435907Y227130D01*
X435574Y227204D01*
X435222Y227296D01*
X434851Y227407D01*
X434481Y227537D01*
X434111Y227685D01*
X433722Y227870D01*
X433370Y228092D01*
X433018Y228352D01*
X432685Y228629D01*
X432667Y228648D01*
X432611Y228703D01*
X432537Y228796D01*
X432426Y228926D01*
X432296Y229111D01*
X432148Y229315D01*
X432000Y229555D01*
X431852Y229833D01*
X431685Y230148D01*
X431537Y230481D01*
X431389Y230870D01*
X431259Y231277D01*
X431148Y231740D01*
X431074Y232222D01*
X431018Y232740D01*
X431000Y233277D01*
Y233314D01*
Y233407D01*
X431018Y233555D01*
Y233740D01*
X431055Y233981D01*
X431093Y234258D01*
X431148Y234573D01*
X431204Y234907D01*
X431296Y235258D01*
X431407Y235629D01*
X431555Y235999D01*
X431704Y236388D01*
X431907Y236758D01*
X432130Y237129D01*
X432389Y237480D01*
X432685Y237814D01*
X432704Y237832D01*
X432759Y237888D01*
X432852Y237980D01*
X433000Y238091D01*
X433166Y238221D01*
X433370Y238351D01*
X433611Y238517D01*
X433889Y238684D01*
X434203Y238832D01*
X434555Y238999D01*
X434925Y239128D01*
X435333Y239277D01*
X435777Y239369D01*
X436259Y239462D01*
X436759Y239517D01*
X437296Y239536D01*
X437685D01*
X437833Y239517D01*
D02*
G37*
G36*
X454386Y227259D02*
X451479D01*
X446813Y235647D01*
Y227259D01*
X444054D01*
Y239314D01*
X447757D01*
X451628Y232407D01*
Y239314D01*
X454386D01*
Y227259D01*
D02*
G37*
G36*
X461349Y239295D02*
X461701Y239277D01*
X462108Y239240D01*
X462515Y239202D01*
X462941Y239147D01*
X462997D01*
X463052Y239128D01*
X463126Y239110D01*
X463237Y239091D01*
X463349Y239054D01*
X463626Y238980D01*
X463941Y238888D01*
X464293Y238739D01*
X464663Y238573D01*
X465033Y238351D01*
X465052D01*
X465089Y238314D01*
X465145Y238277D01*
X465237Y238221D01*
X465441Y238036D01*
X465719Y237814D01*
X466015Y237517D01*
X466330Y237166D01*
X466626Y236758D01*
X466904Y236295D01*
Y236277D01*
X466941Y236240D01*
X466978Y236166D01*
X467015Y236073D01*
X467070Y235944D01*
X467126Y235795D01*
X467181Y235629D01*
X467256Y235444D01*
X467329Y235221D01*
X467385Y234999D01*
X467496Y234481D01*
X467570Y233888D01*
X467607Y233259D01*
Y233240D01*
Y233185D01*
Y233092D01*
X467589Y232981D01*
Y232833D01*
X467570Y232648D01*
X467552Y232462D01*
X467515Y232259D01*
X467422Y231777D01*
X467293Y231277D01*
X467107Y230759D01*
X466867Y230240D01*
Y230222D01*
X466830Y230185D01*
X466793Y230111D01*
X466737Y230018D01*
X466663Y229907D01*
X466570Y229796D01*
X466348Y229500D01*
X466089Y229166D01*
X465774Y228833D01*
X465404Y228500D01*
X464996Y228204D01*
X464978D01*
X464959Y228185D01*
X464904Y228148D01*
X464830Y228111D01*
X464645Y228000D01*
X464385Y227870D01*
X464089Y227741D01*
X463737Y227611D01*
X463349Y227500D01*
X462941Y227426D01*
X462886D01*
X462830Y227407D01*
X462756D01*
X462645Y227389D01*
X462534Y227370D01*
X462238Y227352D01*
X461886Y227315D01*
X461497Y227278D01*
X461052Y227259D01*
X456831D01*
Y239314D01*
X461034D01*
X461349Y239295D01*
D02*
G37*
G36*
X37833Y239517D02*
X38166Y239499D01*
X38573Y239462D01*
X38981Y239406D01*
X39388Y239332D01*
X39758Y239240D01*
X39777D01*
X39795Y239221D01*
X39851Y239202D01*
X39925Y239184D01*
X40110Y239128D01*
X40351Y239036D01*
X40647Y238925D01*
X40980Y238795D01*
X41351Y238647D01*
X41721Y238462D01*
Y235647D01*
X41425D01*
X41406Y235684D01*
X41351Y235721D01*
X41277Y235777D01*
X41184Y235832D01*
X41091Y235907D01*
X40814Y236110D01*
X40795Y236129D01*
X40740Y236166D01*
X40666Y236221D01*
X40555Y236295D01*
X40314Y236462D01*
X40018Y236647D01*
X39999Y236666D01*
X39943Y236684D01*
X39832Y236740D01*
X39721Y236795D01*
X39555Y236869D01*
X39369Y236943D01*
X39184Y237017D01*
X38962Y237092D01*
X38944D01*
X38851Y237129D01*
X38740Y237147D01*
X38592Y237184D01*
X38388Y237221D01*
X38184Y237240D01*
X37944Y237277D01*
X37573D01*
X37425Y237258D01*
X37240Y237240D01*
X37018Y237221D01*
X36777Y237166D01*
X36518Y237110D01*
X36277Y237017D01*
X36259Y236999D01*
X36166Y236980D01*
X36055Y236906D01*
X35907Y236832D01*
X35722Y236740D01*
X35537Y236610D01*
X35333Y236462D01*
X35148Y236277D01*
X35129Y236258D01*
X35074Y236184D01*
X34981Y236092D01*
X34889Y235944D01*
X34759Y235758D01*
X34648Y235555D01*
X34518Y235314D01*
X34407Y235036D01*
X34388Y234999D01*
X34370Y234907D01*
X34314Y234758D01*
X34277Y234536D01*
X34222Y234296D01*
X34166Y233999D01*
X34148Y233666D01*
X34129Y233314D01*
Y233296D01*
Y233222D01*
Y233111D01*
X34148Y232962D01*
X34166Y232796D01*
X34185Y232592D01*
X34222Y232370D01*
X34259Y232129D01*
X34388Y231629D01*
X34481Y231370D01*
X34574Y231111D01*
X34703Y230870D01*
X34833Y230629D01*
X35000Y230407D01*
X35185Y230203D01*
X35203Y230185D01*
X35240Y230166D01*
X35296Y230111D01*
X35370Y230055D01*
X35481Y229981D01*
X35611Y229889D01*
X35777Y229796D01*
X35944Y229703D01*
X36129Y229611D01*
X36351Y229518D01*
X36592Y229444D01*
X36851Y229352D01*
X37129Y229296D01*
X37425Y229240D01*
X37740Y229222D01*
X38073Y229203D01*
X38721D01*
X38851Y229222D01*
Y231592D01*
X36499D01*
Y233870D01*
X41777D01*
Y227926D01*
X41740Y227907D01*
X41628Y227870D01*
X41462Y227815D01*
X41221Y227722D01*
X40925Y227630D01*
X40573Y227537D01*
X40166Y227407D01*
X39703Y227296D01*
X39684D01*
X39647Y227278D01*
X39573D01*
X39481Y227259D01*
X39369Y227222D01*
X39240Y227204D01*
X38925Y227148D01*
X38536Y227093D01*
X38110Y227056D01*
X37666Y227019D01*
X37203Y227000D01*
X37073D01*
X36925Y227019D01*
X36740D01*
X36499Y227056D01*
X36222Y227093D01*
X35907Y227130D01*
X35574Y227204D01*
X35222Y227296D01*
X34851Y227407D01*
X34481Y227537D01*
X34111Y227685D01*
X33722Y227870D01*
X33370Y228092D01*
X33018Y228352D01*
X32685Y228629D01*
X32666Y228648D01*
X32611Y228703D01*
X32537Y228796D01*
X32426Y228926D01*
X32296Y229111D01*
X32148Y229315D01*
X32000Y229555D01*
X31852Y229833D01*
X31685Y230148D01*
X31537Y230481D01*
X31389Y230870D01*
X31259Y231277D01*
X31148Y231740D01*
X31074Y232222D01*
X31019Y232740D01*
X31000Y233277D01*
Y233314D01*
Y233407D01*
X31019Y233555D01*
Y233740D01*
X31056Y233981D01*
X31093Y234258D01*
X31148Y234573D01*
X31204Y234907D01*
X31296Y235258D01*
X31407Y235629D01*
X31556Y235999D01*
X31704Y236388D01*
X31907Y236758D01*
X32129Y237129D01*
X32389Y237480D01*
X32685Y237814D01*
X32703Y237832D01*
X32759Y237888D01*
X32852Y237980D01*
X33000Y238091D01*
X33166Y238221D01*
X33370Y238351D01*
X33611Y238517D01*
X33889Y238684D01*
X34203Y238832D01*
X34555Y238999D01*
X34925Y239128D01*
X35333Y239277D01*
X35777Y239369D01*
X36259Y239462D01*
X36759Y239517D01*
X37296Y239536D01*
X37685D01*
X37833Y239517D01*
D02*
G37*
G36*
X54387Y227259D02*
X51479D01*
X46813Y235647D01*
Y227259D01*
X44054D01*
Y239314D01*
X47758D01*
X51627Y232407D01*
Y239314D01*
X54387D01*
Y227259D01*
D02*
G37*
G36*
X61349Y239295D02*
X61701Y239277D01*
X62108Y239240D01*
X62515Y239202D01*
X62941Y239147D01*
X62997D01*
X63052Y239128D01*
X63126Y239110D01*
X63237Y239091D01*
X63348Y239054D01*
X63626Y238980D01*
X63941Y238888D01*
X64293Y238739D01*
X64663Y238573D01*
X65033Y238351D01*
X65052D01*
X65089Y238314D01*
X65145Y238277D01*
X65237Y238221D01*
X65441Y238036D01*
X65719Y237814D01*
X66015Y237517D01*
X66330Y237166D01*
X66626Y236758D01*
X66904Y236295D01*
Y236277D01*
X66941Y236240D01*
X66978Y236166D01*
X67015Y236073D01*
X67070Y235944D01*
X67126Y235795D01*
X67181Y235629D01*
X67256Y235444D01*
X67330Y235221D01*
X67385Y234999D01*
X67496Y234481D01*
X67570Y233888D01*
X67607Y233259D01*
Y233240D01*
Y233185D01*
Y233092D01*
X67589Y232981D01*
Y232833D01*
X67570Y232648D01*
X67552Y232462D01*
X67515Y232259D01*
X67422Y231777D01*
X67292Y231277D01*
X67107Y230759D01*
X66867Y230240D01*
Y230222D01*
X66830Y230185D01*
X66793Y230111D01*
X66737Y230018D01*
X66663Y229907D01*
X66570Y229796D01*
X66348Y229500D01*
X66089Y229166D01*
X65774Y228833D01*
X65404Y228500D01*
X64997Y228204D01*
X64978D01*
X64959Y228185D01*
X64904Y228148D01*
X64830Y228111D01*
X64645Y228000D01*
X64385Y227870D01*
X64089Y227741D01*
X63737Y227611D01*
X63348Y227500D01*
X62941Y227426D01*
X62886D01*
X62830Y227407D01*
X62756D01*
X62645Y227389D01*
X62534Y227370D01*
X62238Y227352D01*
X61886Y227315D01*
X61497Y227278D01*
X61052Y227259D01*
X56831D01*
Y239314D01*
X61034D01*
X61349Y239295D01*
D02*
G37*
G36*
X66736Y326000D02*
X63829D01*
X59163Y334388D01*
Y326000D01*
X56404D01*
Y338054D01*
X60107D01*
X63977Y331148D01*
Y338054D01*
X66736D01*
Y326000D01*
D02*
G37*
G36*
X43128D02*
X39961D01*
X35832Y338054D01*
X38961D01*
X41591Y329851D01*
X44220Y338054D01*
X47275D01*
X43128Y326000D01*
D02*
G37*
G36*
X30259Y332351D02*
X34388D01*
Y330259D01*
X30259D01*
Y326130D01*
X28129D01*
Y330259D01*
X24000D01*
Y332351D01*
X28129D01*
Y336480D01*
X30259D01*
Y332351D01*
D02*
G37*
G36*
X54404Y335943D02*
X52664D01*
Y328111D01*
X54404D01*
Y326000D01*
X47905D01*
Y328111D01*
X49646D01*
Y335943D01*
X47905D01*
Y338054D01*
X54404D01*
Y335943D01*
D02*
G37*
G36*
X147610Y479249D02*
X147795D01*
X147999Y479231D01*
X148425Y479175D01*
X148444D01*
X148518Y479157D01*
X148629D01*
X148758Y479138D01*
X149018Y479101D01*
X149147Y479083D01*
X149240Y479064D01*
Y476694D01*
X148999D01*
X148981Y476713D01*
X148925Y476731D01*
X148851Y476750D01*
X148740Y476787D01*
X148629Y476824D01*
X148481Y476879D01*
X148314Y476916D01*
X148295D01*
X148221Y476935D01*
X148129Y476972D01*
X147999Y476990D01*
X147832Y477027D01*
X147647Y477046D01*
X147425Y477064D01*
X147073D01*
X146981Y477046D01*
X146851D01*
X146721Y477027D01*
X146407Y476972D01*
X146055Y476879D01*
X145685Y476750D01*
X145333Y476564D01*
X145018Y476305D01*
X144981Y476268D01*
X144888Y476176D01*
X144777Y475990D01*
X144611Y475768D01*
X144462Y475453D01*
X144296Y475102D01*
X144166Y474676D01*
X144074Y474176D01*
X144092Y474194D01*
X144185Y474231D01*
X144296Y474305D01*
X144444Y474398D01*
X144629Y474491D01*
X144833Y474583D01*
X145277Y474768D01*
X145314Y474787D01*
X145388Y474805D01*
X145518Y474842D01*
X145685Y474898D01*
X145888Y474935D01*
X146129Y474972D01*
X146388Y474991D01*
X146666Y475009D01*
X146907D01*
X147055Y474991D01*
X147240Y474972D01*
X147444Y474935D01*
X147870Y474824D01*
X147888D01*
X147962Y474787D01*
X148073Y474750D01*
X148221Y474694D01*
X148370Y474620D01*
X148536Y474546D01*
X148888Y474324D01*
X148925Y474305D01*
X148999Y474231D01*
X149110Y474139D01*
X149258Y473991D01*
X149406Y473806D01*
X149573Y473583D01*
X149740Y473343D01*
X149888Y473065D01*
X149906Y473028D01*
X149943Y472917D01*
X149999Y472750D01*
X150073Y472528D01*
X150147Y472232D01*
X150203Y471898D01*
X150240Y471509D01*
X150258Y471083D01*
Y471065D01*
Y470991D01*
Y470898D01*
X150240Y470769D01*
X150221Y470602D01*
X150203Y470417D01*
X150166Y470213D01*
X150110Y469972D01*
X149962Y469491D01*
X149869Y469213D01*
X149740Y468954D01*
X149610Y468695D01*
X149444Y468436D01*
X149258Y468195D01*
X149036Y467954D01*
X149018Y467936D01*
X148981Y467899D01*
X148906Y467843D01*
X148814Y467769D01*
X148703Y467677D01*
X148555Y467565D01*
X148370Y467454D01*
X148166Y467343D01*
X147944Y467232D01*
X147703Y467121D01*
X147425Y467010D01*
X147147Y466917D01*
X146814Y466843D01*
X146481Y466788D01*
X146129Y466751D01*
X145740Y466732D01*
X145555D01*
X145370Y466751D01*
X145111Y466769D01*
X144814Y466806D01*
X144500Y466862D01*
X144166Y466936D01*
X143851Y467028D01*
X143814Y467047D01*
X143722Y467084D01*
X143555Y467158D01*
X143370Y467251D01*
X143148Y467380D01*
X142926Y467528D01*
X142685Y467714D01*
X142463Y467917D01*
X142426Y467954D01*
X142352Y468047D01*
X142222Y468195D01*
X142074Y468399D01*
X141907Y468658D01*
X141722Y468973D01*
X141555Y469324D01*
X141407Y469713D01*
Y469732D01*
X141389Y469769D01*
X141370Y469824D01*
X141352Y469917D01*
X141333Y470010D01*
X141296Y470139D01*
X141259Y470287D01*
X141241Y470454D01*
X141166Y470843D01*
X141111Y471287D01*
X141074Y471787D01*
X141055Y472343D01*
Y472361D01*
Y472417D01*
Y472491D01*
Y472620D01*
X141074Y472750D01*
Y472917D01*
X141093Y473102D01*
Y473287D01*
X141130Y473731D01*
X141204Y474194D01*
X141278Y474694D01*
X141389Y475157D01*
Y475176D01*
X141407Y475213D01*
X141426Y475287D01*
X141463Y475361D01*
X141481Y475472D01*
X141537Y475602D01*
X141648Y475898D01*
X141815Y476231D01*
X142000Y476601D01*
X142222Y476972D01*
X142500Y477342D01*
Y477361D01*
X142537Y477379D01*
X142629Y477490D01*
X142796Y477657D01*
X143018Y477861D01*
X143277Y478083D01*
X143611Y478324D01*
X143981Y478546D01*
X144407Y478749D01*
X144425D01*
X144462Y478768D01*
X144537Y478805D01*
X144629Y478824D01*
X144740Y478879D01*
X144870Y478916D01*
X145036Y478953D01*
X145222Y479009D01*
X145407Y479064D01*
X145629Y479101D01*
X146110Y479194D01*
X146648Y479249D01*
X147240Y479268D01*
X147462D01*
X147610Y479249D01*
D02*
G37*
G36*
X136056D02*
X136260D01*
X136482Y479231D01*
X136926Y479175D01*
X136945D01*
X137019Y479157D01*
X137130Y479138D01*
X137278Y479120D01*
X137445Y479083D01*
X137630Y479046D01*
X138037Y478953D01*
X138056D01*
X138111Y478935D01*
X138185Y478898D01*
X138296Y478861D01*
X138426Y478824D01*
X138593Y478749D01*
X138926Y478620D01*
X138945D01*
X139000Y478583D01*
X139093Y478546D01*
X139204Y478490D01*
X139463Y478379D01*
X139722Y478250D01*
Y475398D01*
X139389D01*
X139370Y475435D01*
X139259Y475527D01*
X139074Y475657D01*
X138852Y475842D01*
X138834Y475861D01*
X138796Y475898D01*
X138722Y475935D01*
X138630Y476009D01*
X138519Y476083D01*
X138408Y476176D01*
X138111Y476361D01*
X138093Y476379D01*
X138037Y476398D01*
X137945Y476453D01*
X137834Y476509D01*
X137685Y476583D01*
X137537Y476657D01*
X137167Y476805D01*
X137148D01*
X137074Y476842D01*
X136982Y476861D01*
X136852Y476898D01*
X136685Y476935D01*
X136519Y476953D01*
X136130Y476990D01*
X136019D01*
X135889Y476972D01*
X135723D01*
X135538Y476935D01*
X135334Y476898D01*
X135130Y476842D01*
X134927Y476768D01*
X134908D01*
X134834Y476731D01*
X134723Y476676D01*
X134593Y476601D01*
X134445Y476509D01*
X134260Y476379D01*
X134075Y476231D01*
X133890Y476064D01*
X133871Y476046D01*
X133815Y475972D01*
X133723Y475879D01*
X133630Y475731D01*
X133501Y475565D01*
X133390Y475342D01*
X133260Y475102D01*
X133149Y474824D01*
X133130Y474787D01*
X133112Y474694D01*
X133056Y474528D01*
X133019Y474305D01*
X132964Y474028D01*
X132908Y473713D01*
X132890Y473361D01*
X132871Y472972D01*
Y472954D01*
Y472917D01*
Y472861D01*
Y472787D01*
X132890Y472583D01*
X132908Y472324D01*
X132945Y472028D01*
X133001Y471713D01*
X133075Y471398D01*
X133167Y471102D01*
X133186Y471065D01*
X133223Y470972D01*
X133279Y470843D01*
X133371Y470658D01*
X133482Y470472D01*
X133630Y470269D01*
X133778Y470065D01*
X133945Y469880D01*
X133964Y469861D01*
X134019Y469806D01*
X134130Y469732D01*
X134241Y469621D01*
X134408Y469510D01*
X134575Y469398D01*
X134778Y469306D01*
X134982Y469213D01*
X135000D01*
X135093Y469176D01*
X135204Y469158D01*
X135352Y469121D01*
X135519Y469084D01*
X135723Y469065D01*
X136149Y469028D01*
X136241D01*
X136371Y469047D01*
X136519D01*
X136685Y469065D01*
X136871Y469102D01*
X137278Y469213D01*
X137297Y469232D01*
X137371Y469250D01*
X137463Y469287D01*
X137593Y469343D01*
X137889Y469491D01*
X138185Y469658D01*
X138204Y469676D01*
X138259Y469695D01*
X138334Y469750D01*
X138426Y469806D01*
X138648Y469972D01*
X138889Y470158D01*
X138907Y470176D01*
X138945Y470195D01*
X139000Y470250D01*
X139074Y470306D01*
X139259Y470454D01*
X139445Y470621D01*
X139722D01*
Y467769D01*
X139704D01*
X139667Y467751D01*
X139593Y467714D01*
X139500Y467677D01*
X139389Y467621D01*
X139259Y467565D01*
X138945Y467417D01*
X138926D01*
X138870Y467380D01*
X138778Y467343D01*
X138667Y467306D01*
X138537Y467251D01*
X138389Y467195D01*
X138056Y467084D01*
X138037D01*
X137963Y467065D01*
X137852Y467028D01*
X137704Y466991D01*
X137537Y466954D01*
X137352Y466917D01*
X136982Y466843D01*
X136963D01*
X136889Y466825D01*
X136778Y466806D01*
X136630D01*
X136445Y466788D01*
X136204Y466769D01*
X135945Y466751D01*
X135519D01*
X135371Y466769D01*
X135186D01*
X134964Y466806D01*
X134686Y466843D01*
X134389Y466880D01*
X134075Y466954D01*
X133741Y467047D01*
X133390Y467158D01*
X133038Y467288D01*
X132686Y467436D01*
X132316Y467621D01*
X131982Y467843D01*
X131649Y468102D01*
X131334Y468380D01*
X131316Y468399D01*
X131260Y468454D01*
X131186Y468547D01*
X131094Y468676D01*
X130964Y468843D01*
X130834Y469047D01*
X130686Y469287D01*
X130538Y469565D01*
X130390Y469880D01*
X130242Y470213D01*
X130112Y470602D01*
X129983Y471009D01*
X129890Y471454D01*
X129816Y471935D01*
X129760Y472454D01*
X129742Y472991D01*
Y473028D01*
Y473120D01*
X129760Y473269D01*
Y473472D01*
X129797Y473713D01*
X129834Y473991D01*
X129871Y474305D01*
X129945Y474639D01*
X130020Y474991D01*
X130131Y475361D01*
X130260Y475750D01*
X130408Y476139D01*
X130594Y476509D01*
X130816Y476879D01*
X131056Y477231D01*
X131334Y477564D01*
X131353Y477583D01*
X131408Y477638D01*
X131501Y477731D01*
X131630Y477824D01*
X131779Y477953D01*
X131982Y478101D01*
X132205Y478250D01*
X132464Y478416D01*
X132760Y478583D01*
X133075Y478731D01*
X133445Y478879D01*
X133815Y479009D01*
X134223Y479120D01*
X134667Y479194D01*
X135130Y479249D01*
X135630Y479268D01*
X135889D01*
X136056Y479249D01*
D02*
G37*
G36*
X157610Y357814D02*
X157796Y357795D01*
X157999Y357777D01*
X158222Y357758D01*
X158481Y357721D01*
X158999Y357592D01*
X159536Y357425D01*
X159814Y357314D01*
X160055Y357184D01*
X160295Y357036D01*
X160518Y356870D01*
X160536Y356851D01*
X160573Y356833D01*
X160629Y356777D01*
X160684Y356684D01*
X160777Y356592D01*
X160869Y356481D01*
X160962Y356333D01*
X161073Y356166D01*
X161184Y355999D01*
X161277Y355796D01*
X161369Y355574D01*
X161462Y355333D01*
X161517Y355074D01*
X161573Y354796D01*
X161610Y354500D01*
X161628Y354185D01*
Y354166D01*
Y354129D01*
Y354074D01*
Y354000D01*
X161610Y353907D01*
Y353796D01*
X161573Y353518D01*
X161499Y353203D01*
X161406Y352852D01*
X161277Y352481D01*
X161110Y352092D01*
Y352074D01*
X161091Y352055D01*
X161054Y352000D01*
X161017Y351907D01*
X160962Y351815D01*
X160888Y351703D01*
X160721Y351444D01*
X160480Y351111D01*
X160203Y350741D01*
X159851Y350333D01*
X159444Y349907D01*
X159406Y349870D01*
X159314Y349778D01*
X159184Y349648D01*
X158999Y349482D01*
X158777Y349278D01*
X158555Y349056D01*
X158036Y348611D01*
X157999Y348593D01*
X157925Y348519D01*
X157796Y348426D01*
X157647Y348315D01*
X157333Y348056D01*
X157166Y347926D01*
X157036Y347834D01*
X162147D01*
Y345556D01*
X153296D01*
Y347519D01*
X153315Y347537D01*
X153352Y347556D01*
X153407Y347611D01*
X153481Y347667D01*
X153703Y347834D01*
X153963Y348056D01*
X154277Y348315D01*
X154611Y348593D01*
X154963Y348889D01*
X155296Y349185D01*
X155314Y349204D01*
X155333Y349222D01*
X155444Y349315D01*
X155611Y349482D01*
X155833Y349667D01*
X156092Y349907D01*
X156351Y350167D01*
X156629Y350426D01*
X156888Y350704D01*
X156907Y350722D01*
X156925Y350741D01*
X157036Y350852D01*
X157184Y351037D01*
X157388Y351259D01*
X157592Y351500D01*
X157796Y351778D01*
X157999Y352055D01*
X158166Y352333D01*
X158184Y352370D01*
X158222Y352463D01*
X158295Y352592D01*
X158370Y352777D01*
X158444Y353000D01*
X158518Y353240D01*
X158555Y353500D01*
X158573Y353777D01*
Y353796D01*
Y353814D01*
Y353907D01*
X158555Y354074D01*
X158518Y354259D01*
X158444Y354463D01*
X158351Y354666D01*
X158222Y354870D01*
X158055Y355055D01*
X158036Y355074D01*
X157962Y355129D01*
X157851Y355203D01*
X157703Y355296D01*
X157499Y355370D01*
X157259Y355444D01*
X156981Y355499D01*
X156666Y355518D01*
X156499D01*
X156388Y355499D01*
X156259Y355481D01*
X156111Y355462D01*
X155796Y355388D01*
X155777D01*
X155722Y355370D01*
X155648Y355351D01*
X155537Y355314D01*
X155407Y355277D01*
X155277Y355222D01*
X154963Y355111D01*
X154944D01*
X154888Y355074D01*
X154814Y355037D01*
X154722Y355000D01*
X154500Y354870D01*
X154259Y354722D01*
X154240D01*
X154203Y354685D01*
X154092Y354611D01*
X153944Y354518D01*
X153814Y354444D01*
X153592D01*
Y357073D01*
X153611Y357092D01*
X153685Y357110D01*
X153814Y357166D01*
X153981Y357221D01*
X154203Y357296D01*
X154463Y357388D01*
X154796Y357481D01*
X155166Y357573D01*
X155185D01*
X155222Y357592D01*
X155277D01*
X155351Y357610D01*
X155444Y357629D01*
X155574Y357647D01*
X155833Y357703D01*
X156166Y357758D01*
X156518Y357795D01*
X156888Y357814D01*
X157259Y357832D01*
X157462D01*
X157610Y357814D01*
D02*
G37*
G36*
X145945Y357851D02*
X146130D01*
X146371Y357814D01*
X146630Y357777D01*
X146926Y357721D01*
X147241Y357666D01*
X147574Y357573D01*
X147926Y357462D01*
X148278Y357314D01*
X148648Y357166D01*
X149000Y356962D01*
X149333Y356740D01*
X149667Y356481D01*
X149963Y356185D01*
X149982Y356166D01*
X150037Y356110D01*
X150111Y356018D01*
X150204Y355870D01*
X150333Y355703D01*
X150463Y355499D01*
X150611Y355259D01*
X150759Y354981D01*
X150889Y354666D01*
X151037Y354314D01*
X151167Y353944D01*
X151296Y353537D01*
X151389Y353092D01*
X151463Y352611D01*
X151518Y352111D01*
X151537Y351574D01*
Y351555D01*
Y351481D01*
Y351370D01*
X151518Y351222D01*
Y351037D01*
X151500Y350815D01*
X151463Y350574D01*
X151426Y350315D01*
X151315Y349741D01*
X151167Y349130D01*
X150944Y348500D01*
X150796Y348204D01*
X150648Y347908D01*
X150630Y347889D01*
X150611Y347834D01*
X150556Y347760D01*
X150482Y347667D01*
X150389Y347537D01*
X150278Y347389D01*
X150148Y347241D01*
X150000Y347074D01*
X149833Y346889D01*
X149648Y346704D01*
X149222Y346352D01*
X148722Y346019D01*
X148445Y345871D01*
X148148Y345741D01*
Y345723D01*
Y345704D01*
Y345593D01*
X148167Y345445D01*
X148204Y345260D01*
X148241Y345075D01*
X148297Y344871D01*
X148389Y344686D01*
X148519Y344538D01*
X148537Y344519D01*
X148593Y344482D01*
X148685Y344426D01*
X148834Y344371D01*
X149019Y344297D01*
X149241Y344241D01*
X149519Y344204D01*
X149852Y344186D01*
X150000D01*
X150093Y344204D01*
X150204D01*
X150333Y344241D01*
X150630Y344297D01*
X150648D01*
X150704Y344315D01*
X150759Y344334D01*
X150852Y344371D01*
X151037Y344426D01*
X151130Y344464D01*
X151204Y344501D01*
X151518D01*
Y342371D01*
X151500D01*
X151426Y342353D01*
X151333Y342334D01*
X151204Y342316D01*
X151056Y342279D01*
X150889Y342260D01*
X150519Y342205D01*
X150500D01*
X150426Y342186D01*
X150315D01*
X150148Y342168D01*
X149945Y342149D01*
X149667D01*
X149370Y342131D01*
X148834D01*
X148667Y342149D01*
X148445Y342168D01*
X148186Y342186D01*
X147908Y342242D01*
X147630Y342297D01*
X147371Y342371D01*
X147334Y342390D01*
X147260Y342408D01*
X147130Y342464D01*
X146982Y342556D01*
X146815Y342649D01*
X146630Y342760D01*
X146445Y342908D01*
X146260Y343056D01*
X146241Y343075D01*
X146186Y343130D01*
X146112Y343223D01*
X146019Y343353D01*
X145908Y343501D01*
X145797Y343667D01*
X145686Y343853D01*
X145593Y344075D01*
Y344093D01*
X145556Y344186D01*
X145519Y344297D01*
X145482Y344464D01*
X145445Y344649D01*
X145389Y344852D01*
X145371Y345093D01*
X145352Y345334D01*
X145315D01*
X145241Y345352D01*
X145112D01*
X144927Y345389D01*
X144704Y345408D01*
X144464Y345463D01*
X144186Y345519D01*
X143890Y345612D01*
X143575Y345704D01*
X143242Y345834D01*
X142908Y345963D01*
X142556Y346130D01*
X142223Y346334D01*
X141908Y346556D01*
X141594Y346815D01*
X141316Y347111D01*
X141297Y347130D01*
X141260Y347186D01*
X141186Y347278D01*
X141094Y347408D01*
X140983Y347574D01*
X140853Y347778D01*
X140723Y348019D01*
X140594Y348297D01*
X140445Y348593D01*
X140316Y348926D01*
X140186Y349296D01*
X140075Y349685D01*
X139983Y350111D01*
X139909Y350574D01*
X139872Y351055D01*
X139853Y351574D01*
Y351611D01*
Y351703D01*
X139872Y351852D01*
Y352055D01*
X139909Y352296D01*
X139927Y352592D01*
X139983Y352907D01*
X140038Y353240D01*
X140131Y353592D01*
X140223Y353981D01*
X140353Y354351D01*
X140501Y354740D01*
X140686Y355111D01*
X140890Y355481D01*
X141112Y355833D01*
X141390Y356166D01*
X141408Y356185D01*
X141464Y356240D01*
X141557Y356333D01*
X141668Y356425D01*
X141834Y356555D01*
X142020Y356703D01*
X142260Y356851D01*
X142519Y357018D01*
X142797Y357184D01*
X143130Y357333D01*
X143482Y357481D01*
X143853Y357610D01*
X144278Y357721D01*
X144723Y357795D01*
X145186Y357851D01*
X145686Y357870D01*
X145815D01*
X145945Y357851D01*
D02*
G37*
G36*
X157407Y108667D02*
X159888D01*
Y106556D01*
X151926D01*
Y108667D01*
X154462D01*
Y115018D01*
X151926D01*
Y116981D01*
X152277D01*
X152444Y116999D01*
X152629D01*
X153018Y117036D01*
X153037D01*
X153111Y117055D01*
X153203Y117073D01*
X153333Y117092D01*
X153629Y117166D01*
X153777Y117222D01*
X153907Y117277D01*
X153925Y117296D01*
X153962Y117314D01*
X154037Y117351D01*
X154129Y117425D01*
X154314Y117573D01*
X154499Y117796D01*
X154518Y117814D01*
X154537Y117851D01*
X154573Y117925D01*
X154611Y118018D01*
X154666Y118147D01*
X154703Y118295D01*
X154740Y118444D01*
X154759Y118629D01*
X157407D01*
Y108667D01*
D02*
G37*
G36*
X144204Y118851D02*
X144389D01*
X144630Y118814D01*
X144889Y118777D01*
X145186Y118721D01*
X145500Y118666D01*
X145834Y118573D01*
X146186Y118462D01*
X146537Y118314D01*
X146908Y118166D01*
X147259Y117962D01*
X147593Y117740D01*
X147926Y117481D01*
X148222Y117185D01*
X148241Y117166D01*
X148296Y117111D01*
X148370Y117018D01*
X148463Y116870D01*
X148593Y116703D01*
X148722Y116499D01*
X148870Y116259D01*
X149018Y115981D01*
X149148Y115666D01*
X149296Y115314D01*
X149426Y114944D01*
X149556Y114537D01*
X149648Y114092D01*
X149722Y113611D01*
X149778Y113111D01*
X149796Y112574D01*
Y112555D01*
Y112481D01*
Y112370D01*
X149778Y112222D01*
Y112037D01*
X149759Y111815D01*
X149722Y111574D01*
X149685Y111315D01*
X149574Y110741D01*
X149426Y110130D01*
X149204Y109500D01*
X149056Y109204D01*
X148907Y108908D01*
X148889Y108889D01*
X148870Y108834D01*
X148815Y108759D01*
X148741Y108667D01*
X148648Y108537D01*
X148537Y108389D01*
X148407Y108241D01*
X148259Y108074D01*
X148093Y107889D01*
X147907Y107704D01*
X147482Y107352D01*
X146982Y107019D01*
X146704Y106871D01*
X146408Y106741D01*
Y106723D01*
Y106704D01*
Y106593D01*
X146426Y106445D01*
X146463Y106260D01*
X146500Y106075D01*
X146556Y105871D01*
X146648Y105686D01*
X146778Y105538D01*
X146797Y105519D01*
X146852Y105482D01*
X146945Y105427D01*
X147093Y105371D01*
X147278Y105297D01*
X147500Y105241D01*
X147778Y105204D01*
X148111Y105186D01*
X148259D01*
X148352Y105204D01*
X148463D01*
X148593Y105241D01*
X148889Y105297D01*
X148907D01*
X148963Y105315D01*
X149018Y105334D01*
X149111Y105371D01*
X149296Y105427D01*
X149389Y105463D01*
X149463Y105501D01*
X149778D01*
Y103371D01*
X149759D01*
X149685Y103353D01*
X149593Y103334D01*
X149463Y103316D01*
X149315Y103279D01*
X149148Y103260D01*
X148778Y103204D01*
X148759D01*
X148685Y103186D01*
X148574D01*
X148407Y103167D01*
X148204Y103149D01*
X147926D01*
X147630Y103131D01*
X147093D01*
X146926Y103149D01*
X146704Y103167D01*
X146445Y103186D01*
X146167Y103242D01*
X145889Y103297D01*
X145630Y103371D01*
X145593Y103390D01*
X145519Y103408D01*
X145389Y103464D01*
X145241Y103556D01*
X145075Y103649D01*
X144889Y103760D01*
X144704Y103908D01*
X144519Y104056D01*
X144501Y104075D01*
X144445Y104130D01*
X144371Y104223D01*
X144278Y104353D01*
X144167Y104501D01*
X144056Y104667D01*
X143945Y104853D01*
X143852Y105075D01*
Y105093D01*
X143815Y105186D01*
X143778Y105297D01*
X143741Y105463D01*
X143704Y105649D01*
X143649Y105852D01*
X143630Y106093D01*
X143612Y106334D01*
X143575D01*
X143501Y106352D01*
X143371D01*
X143186Y106389D01*
X142964Y106408D01*
X142723Y106463D01*
X142445Y106519D01*
X142149Y106612D01*
X141834Y106704D01*
X141501Y106834D01*
X141167Y106963D01*
X140816Y107130D01*
X140482Y107334D01*
X140168Y107556D01*
X139853Y107815D01*
X139575Y108111D01*
X139557Y108130D01*
X139520Y108186D01*
X139445Y108278D01*
X139353Y108408D01*
X139242Y108574D01*
X139112Y108778D01*
X138982Y109019D01*
X138853Y109297D01*
X138705Y109593D01*
X138575Y109926D01*
X138446Y110296D01*
X138334Y110685D01*
X138242Y111111D01*
X138168Y111574D01*
X138131Y112056D01*
X138112Y112574D01*
Y112611D01*
Y112704D01*
X138131Y112852D01*
Y113055D01*
X138168Y113296D01*
X138186Y113592D01*
X138242Y113907D01*
X138297Y114240D01*
X138390Y114592D01*
X138483Y114981D01*
X138612Y115351D01*
X138760Y115740D01*
X138946Y116111D01*
X139149Y116481D01*
X139371Y116833D01*
X139649Y117166D01*
X139668Y117185D01*
X139723Y117240D01*
X139816Y117333D01*
X139927Y117425D01*
X140093Y117555D01*
X140279Y117703D01*
X140519Y117851D01*
X140779Y118018D01*
X141056Y118184D01*
X141390Y118333D01*
X141742Y118481D01*
X142112Y118610D01*
X142538Y118721D01*
X142982Y118795D01*
X143445Y118851D01*
X143945Y118870D01*
X144075D01*
X144204Y118851D01*
D02*
G37*
G36*
X283620Y474120D02*
X283805Y474101D01*
X284009Y474083D01*
X284231Y474064D01*
X284490Y474027D01*
X285009Y473898D01*
X285546Y473731D01*
X285823Y473620D01*
X286064Y473490D01*
X286305Y473342D01*
X286527Y473175D01*
X286546Y473157D01*
X286583Y473138D01*
X286638Y473083D01*
X286694Y472990D01*
X286786Y472898D01*
X286879Y472787D01*
X286971Y472638D01*
X287083Y472472D01*
X287194Y472305D01*
X287286Y472101D01*
X287379Y471879D01*
X287471Y471638D01*
X287527Y471379D01*
X287582Y471101D01*
X287619Y470805D01*
X287638Y470490D01*
Y470472D01*
Y470435D01*
Y470379D01*
Y470305D01*
X287619Y470213D01*
Y470102D01*
X287582Y469824D01*
X287508Y469509D01*
X287416Y469157D01*
X287286Y468787D01*
X287120Y468398D01*
Y468380D01*
X287101Y468361D01*
X287064Y468306D01*
X287027Y468213D01*
X286971Y468120D01*
X286897Y468009D01*
X286731Y467750D01*
X286490Y467417D01*
X286212Y467046D01*
X285860Y466639D01*
X285453Y466213D01*
X285416Y466176D01*
X285323Y466083D01*
X285194Y465954D01*
X285009Y465787D01*
X284786Y465584D01*
X284564Y465361D01*
X284046Y464917D01*
X284009Y464898D01*
X283935Y464824D01*
X283805Y464732D01*
X283657Y464621D01*
X283342Y464361D01*
X283176Y464232D01*
X283046Y464139D01*
X288157D01*
Y461862D01*
X279305D01*
Y463825D01*
X279324Y463843D01*
X279361Y463862D01*
X279417Y463917D01*
X279491Y463973D01*
X279713Y464139D01*
X279972Y464361D01*
X280287Y464621D01*
X280620Y464898D01*
X280972Y465195D01*
X281305Y465491D01*
X281324Y465509D01*
X281342Y465528D01*
X281453Y465621D01*
X281620Y465787D01*
X281842Y465972D01*
X282101Y466213D01*
X282361Y466472D01*
X282638Y466732D01*
X282898Y467009D01*
X282916Y467028D01*
X282935Y467046D01*
X283046Y467158D01*
X283194Y467343D01*
X283398Y467565D01*
X283601Y467806D01*
X283805Y468083D01*
X284009Y468361D01*
X284175Y468639D01*
X284194Y468676D01*
X284231Y468769D01*
X284305Y468898D01*
X284379Y469083D01*
X284453Y469305D01*
X284527Y469546D01*
X284564Y469805D01*
X284583Y470083D01*
Y470102D01*
Y470120D01*
Y470213D01*
X284564Y470379D01*
X284527Y470565D01*
X284453Y470768D01*
X284361Y470972D01*
X284231Y471176D01*
X284064Y471361D01*
X284046Y471379D01*
X283972Y471435D01*
X283861Y471509D01*
X283713Y471601D01*
X283509Y471676D01*
X283268Y471750D01*
X282990Y471805D01*
X282676Y471824D01*
X282509D01*
X282398Y471805D01*
X282268Y471787D01*
X282120Y471768D01*
X281805Y471694D01*
X281787D01*
X281731Y471676D01*
X281657Y471657D01*
X281546Y471620D01*
X281416Y471583D01*
X281287Y471527D01*
X280972Y471416D01*
X280954D01*
X280898Y471379D01*
X280824Y471342D01*
X280731Y471305D01*
X280509Y471176D01*
X280268Y471027D01*
X280250D01*
X280213Y470990D01*
X280102Y470916D01*
X279954Y470824D01*
X279824Y470750D01*
X279602D01*
Y473379D01*
X279620Y473398D01*
X279694Y473416D01*
X279824Y473472D01*
X279991Y473527D01*
X280213Y473601D01*
X280472Y473694D01*
X280805Y473787D01*
X281176Y473879D01*
X281194D01*
X281231Y473898D01*
X281287D01*
X281361Y473916D01*
X281453Y473935D01*
X281583Y473953D01*
X281842Y474009D01*
X282176Y474064D01*
X282527Y474101D01*
X282898Y474120D01*
X283268Y474138D01*
X283472D01*
X283620Y474120D01*
D02*
G37*
G36*
X272862Y464158D02*
X277898D01*
Y461862D01*
X269844D01*
Y473916D01*
X272862D01*
Y464158D01*
D02*
G37*
G36*
X288416Y205075D02*
X290897D01*
Y202964D01*
X282935D01*
Y205075D01*
X285472D01*
Y211426D01*
X282935D01*
Y213388D01*
X283287D01*
X283454Y213407D01*
X283639D01*
X284028Y213444D01*
X284046D01*
X284120Y213463D01*
X284213Y213481D01*
X284342Y213500D01*
X284639Y213574D01*
X284787Y213629D01*
X284916Y213685D01*
X284935Y213703D01*
X284972Y213722D01*
X285046Y213759D01*
X285139Y213833D01*
X285324Y213981D01*
X285509Y214203D01*
X285527Y214222D01*
X285546Y214259D01*
X285583Y214333D01*
X285620Y214425D01*
X285676Y214555D01*
X285713Y214703D01*
X285750Y214851D01*
X285768Y215036D01*
X288416D01*
Y205075D01*
D02*
G37*
G36*
X276121Y205260D02*
X281157D01*
Y202964D01*
X273103D01*
Y215018D01*
X276121D01*
Y205260D01*
D02*
G37*
G36*
X370816Y412231D02*
X371020D01*
X371242Y412212D01*
X371686Y412157D01*
X371705D01*
X371779Y412138D01*
X371890Y412120D01*
X372038Y412101D01*
X372205Y412064D01*
X372390Y412027D01*
X372797Y411935D01*
X372816D01*
X372871Y411916D01*
X372945Y411879D01*
X373056Y411842D01*
X373186Y411805D01*
X373353Y411731D01*
X373686Y411601D01*
X373704D01*
X373760Y411564D01*
X373853Y411527D01*
X373964Y411472D01*
X374223Y411361D01*
X374482Y411231D01*
Y408379D01*
X374149D01*
X374130Y408416D01*
X374019Y408509D01*
X373834Y408639D01*
X373612Y408824D01*
X373593Y408842D01*
X373556Y408879D01*
X373482Y408916D01*
X373390Y408990D01*
X373279Y409064D01*
X373167Y409157D01*
X372871Y409342D01*
X372853Y409361D01*
X372797Y409379D01*
X372705Y409435D01*
X372593Y409490D01*
X372445Y409565D01*
X372297Y409638D01*
X371927Y409787D01*
X371908D01*
X371834Y409824D01*
X371742Y409842D01*
X371612Y409879D01*
X371445Y409916D01*
X371279Y409935D01*
X370890Y409972D01*
X370779D01*
X370649Y409953D01*
X370482D01*
X370297Y409916D01*
X370094Y409879D01*
X369890Y409824D01*
X369686Y409750D01*
X369668D01*
X369594Y409713D01*
X369483Y409657D01*
X369353Y409583D01*
X369205Y409490D01*
X369020Y409361D01*
X368834Y409213D01*
X368649Y409046D01*
X368631Y409027D01*
X368575Y408953D01*
X368483Y408861D01*
X368390Y408713D01*
X368260Y408546D01*
X368149Y408324D01*
X368020Y408083D01*
X367909Y407805D01*
X367890Y407768D01*
X367872Y407676D01*
X367816Y407509D01*
X367779Y407287D01*
X367724Y407009D01*
X367668Y406694D01*
X367649Y406343D01*
X367631Y405954D01*
Y405935D01*
Y405898D01*
Y405843D01*
Y405769D01*
X367649Y405565D01*
X367668Y405306D01*
X367705Y405009D01*
X367761Y404695D01*
X367835Y404380D01*
X367927Y404084D01*
X367946Y404047D01*
X367983Y403954D01*
X368038Y403824D01*
X368131Y403639D01*
X368242Y403454D01*
X368390Y403250D01*
X368538Y403047D01*
X368705Y402861D01*
X368723Y402843D01*
X368779Y402787D01*
X368890Y402713D01*
X369001Y402602D01*
X369168Y402491D01*
X369334Y402380D01*
X369538Y402287D01*
X369742Y402195D01*
X369760D01*
X369853Y402158D01*
X369964Y402139D01*
X370112Y402102D01*
X370279Y402065D01*
X370482Y402047D01*
X370908Y402010D01*
X371001D01*
X371131Y402028D01*
X371279D01*
X371445Y402047D01*
X371631Y402084D01*
X372038Y402195D01*
X372056Y402213D01*
X372130Y402232D01*
X372223Y402269D01*
X372353Y402324D01*
X372649Y402473D01*
X372945Y402639D01*
X372964Y402658D01*
X373019Y402676D01*
X373093Y402732D01*
X373186Y402787D01*
X373408Y402954D01*
X373649Y403139D01*
X373667Y403158D01*
X373704Y403176D01*
X373760Y403232D01*
X373834Y403287D01*
X374019Y403436D01*
X374204Y403602D01*
X374482D01*
Y400751D01*
X374464D01*
X374426Y400732D01*
X374352Y400695D01*
X374260Y400658D01*
X374149Y400602D01*
X374019Y400547D01*
X373704Y400399D01*
X373686D01*
X373630Y400362D01*
X373538Y400325D01*
X373427Y400288D01*
X373297Y400232D01*
X373149Y400177D01*
X372816Y400065D01*
X372797D01*
X372723Y400047D01*
X372612Y400010D01*
X372464Y399973D01*
X372297Y399936D01*
X372112Y399899D01*
X371742Y399825D01*
X371723D01*
X371649Y399806D01*
X371538Y399788D01*
X371390D01*
X371205Y399769D01*
X370964Y399751D01*
X370705Y399732D01*
X370279D01*
X370131Y399751D01*
X369945D01*
X369723Y399788D01*
X369445Y399825D01*
X369149Y399862D01*
X368834Y399936D01*
X368501Y400028D01*
X368149Y400140D01*
X367798Y400269D01*
X367446Y400417D01*
X367075Y400602D01*
X366742Y400825D01*
X366409Y401084D01*
X366094Y401362D01*
X366076Y401380D01*
X366020Y401436D01*
X365946Y401528D01*
X365853Y401658D01*
X365724Y401824D01*
X365594Y402028D01*
X365446Y402269D01*
X365298Y402547D01*
X365150Y402861D01*
X365002Y403195D01*
X364872Y403584D01*
X364742Y403991D01*
X364650Y404435D01*
X364576Y404917D01*
X364520Y405435D01*
X364502Y405972D01*
Y406009D01*
Y406102D01*
X364520Y406250D01*
Y406454D01*
X364557Y406694D01*
X364594Y406972D01*
X364631Y407287D01*
X364705Y407620D01*
X364779Y407972D01*
X364891Y408342D01*
X365020Y408731D01*
X365168Y409120D01*
X365353Y409490D01*
X365576Y409861D01*
X365816Y410213D01*
X366094Y410546D01*
X366113Y410564D01*
X366168Y410620D01*
X366261Y410713D01*
X366390Y410805D01*
X366538Y410935D01*
X366742Y411083D01*
X366964Y411231D01*
X367224Y411398D01*
X367520Y411564D01*
X367835Y411712D01*
X368205Y411861D01*
X368575Y411990D01*
X368983Y412101D01*
X369427Y412175D01*
X369890Y412231D01*
X370390Y412249D01*
X370649D01*
X370816Y412231D01*
D02*
G37*
G36*
X382092Y402084D02*
X384574D01*
Y399973D01*
X376612D01*
Y402084D01*
X379148D01*
Y408435D01*
X376612D01*
Y410398D01*
X376963D01*
X377130Y410416D01*
X377315D01*
X377704Y410453D01*
X377723D01*
X377797Y410472D01*
X377889Y410490D01*
X378019Y410509D01*
X378315Y410583D01*
X378463Y410638D01*
X378593Y410694D01*
X378611Y410713D01*
X378648Y410731D01*
X378722Y410768D01*
X378815Y410842D01*
X379000Y410990D01*
X379185Y411212D01*
X379204Y411231D01*
X379222Y411268D01*
X379259Y411342D01*
X379296Y411435D01*
X379352Y411564D01*
X379389Y411712D01*
X379426Y411861D01*
X379445Y412046D01*
X382092D01*
Y402084D01*
D02*
G37*
G36*
X391184Y412268D02*
X391314D01*
X391610Y412231D01*
X391943Y412175D01*
X392313Y412101D01*
X392684Y412009D01*
X393017Y411861D01*
X393036D01*
X393054Y411842D01*
X393165Y411786D01*
X393313Y411694D01*
X393517Y411564D01*
X393739Y411379D01*
X393980Y411175D01*
X394221Y410935D01*
X394443Y410638D01*
X394462Y410601D01*
X394535Y410490D01*
X394628Y410324D01*
X394758Y410101D01*
X394887Y409824D01*
X395017Y409490D01*
X395128Y409101D01*
X395239Y408676D01*
Y408657D01*
X395258Y408620D01*
Y408565D01*
X395276Y408472D01*
X395295Y408361D01*
X395313Y408231D01*
X395350Y408083D01*
X395369Y407898D01*
X395424Y407509D01*
X395461Y407046D01*
X395480Y406546D01*
X395498Y405991D01*
Y405972D01*
Y405917D01*
Y405843D01*
Y405732D01*
Y405602D01*
X395480Y405435D01*
Y405269D01*
X395461Y405065D01*
X395443Y404639D01*
X395387Y404176D01*
X395332Y403713D01*
X395239Y403250D01*
Y403232D01*
X395221Y403195D01*
Y403139D01*
X395184Y403065D01*
X395128Y402843D01*
X395036Y402565D01*
X394924Y402250D01*
X394795Y401936D01*
X394628Y401602D01*
X394443Y401287D01*
X394424Y401250D01*
X394350Y401158D01*
X394221Y401028D01*
X394054Y400843D01*
X393850Y400658D01*
X393591Y400454D01*
X393313Y400269D01*
X392999Y400103D01*
X392980D01*
X392962Y400084D01*
X392906Y400065D01*
X392850Y400047D01*
X392665Y399973D01*
X392406Y399917D01*
X392091Y399843D01*
X391721Y399769D01*
X391314Y399732D01*
X390851Y399714D01*
X390647D01*
X390536Y399732D01*
X390406D01*
X390110Y399769D01*
X389758Y399806D01*
X389406Y399880D01*
X389036Y399973D01*
X388684Y400103D01*
X388666D01*
X388647Y400121D01*
X388536Y400177D01*
X388388Y400269D01*
X388184Y400399D01*
X387944Y400584D01*
X387703Y400788D01*
X387462Y401028D01*
X387240Y401306D01*
Y401325D01*
X387221Y401343D01*
X387147Y401454D01*
X387055Y401621D01*
X386944Y401843D01*
X386814Y402139D01*
X386684Y402473D01*
X386555Y402843D01*
X386444Y403269D01*
Y403287D01*
X386425Y403324D01*
Y403380D01*
X386407Y403473D01*
X386388Y403584D01*
X386370Y403713D01*
X386351Y403880D01*
X386333Y404047D01*
X386277Y404454D01*
X386240Y404917D01*
X386222Y405435D01*
X386203Y405991D01*
Y406009D01*
Y406065D01*
Y406139D01*
Y406269D01*
Y406398D01*
X386222Y406565D01*
Y406750D01*
X386240Y406935D01*
X386259Y407361D01*
X386314Y407824D01*
X386370Y408287D01*
X386444Y408731D01*
Y408750D01*
X386462Y408787D01*
Y408842D01*
X386499Y408916D01*
X386555Y409139D01*
X386629Y409398D01*
X386740Y409713D01*
X386888Y410027D01*
X387055Y410379D01*
X387258Y410694D01*
Y410713D01*
X387277Y410731D01*
X387370Y410824D01*
X387481Y410972D01*
X387666Y411138D01*
X387870Y411342D01*
X388110Y411527D01*
X388406Y411712D01*
X388721Y411879D01*
X388740D01*
X388758Y411898D01*
X388814Y411916D01*
X388888Y411935D01*
X389073Y412009D01*
X389314Y412083D01*
X389629Y412157D01*
X389999Y412231D01*
X390406Y412268D01*
X390851Y412286D01*
X391073D01*
X391184Y412268D01*
D02*
G37*
G36*
X376176Y244222D02*
X376380D01*
X376602Y244203D01*
X377047Y244147D01*
X377065D01*
X377139Y244129D01*
X377250Y244111D01*
X377398Y244092D01*
X377565Y244055D01*
X377750Y244018D01*
X378158Y243925D01*
X378176D01*
X378232Y243907D01*
X378306Y243870D01*
X378417Y243833D01*
X378546Y243796D01*
X378713Y243722D01*
X379046Y243592D01*
X379065D01*
X379120Y243555D01*
X379213Y243518D01*
X379324Y243462D01*
X379583Y243351D01*
X379843Y243222D01*
Y240370D01*
X379509D01*
X379491Y240407D01*
X379380Y240500D01*
X379194Y240629D01*
X378972Y240814D01*
X378954Y240833D01*
X378917Y240870D01*
X378843Y240907D01*
X378750Y240981D01*
X378639Y241055D01*
X378528Y241148D01*
X378232Y241333D01*
X378213Y241352D01*
X378158Y241370D01*
X378065Y241426D01*
X377954Y241481D01*
X377806Y241555D01*
X377658Y241629D01*
X377287Y241777D01*
X377269D01*
X377195Y241814D01*
X377102Y241833D01*
X376973Y241870D01*
X376806Y241907D01*
X376639Y241926D01*
X376250Y241963D01*
X376139D01*
X376010Y241944D01*
X375843D01*
X375658Y241907D01*
X375454Y241870D01*
X375251Y241814D01*
X375047Y241740D01*
X375028D01*
X374954Y241703D01*
X374843Y241648D01*
X374714Y241574D01*
X374565Y241481D01*
X374380Y241352D01*
X374195Y241203D01*
X374010Y241037D01*
X373991Y241018D01*
X373936Y240944D01*
X373843Y240852D01*
X373751Y240703D01*
X373621Y240537D01*
X373510Y240315D01*
X373380Y240074D01*
X373269Y239796D01*
X373251Y239759D01*
X373232Y239667D01*
X373177Y239500D01*
X373140Y239278D01*
X373084Y239000D01*
X373028Y238685D01*
X373010Y238333D01*
X372991Y237945D01*
Y237926D01*
Y237889D01*
Y237833D01*
Y237759D01*
X373010Y237556D01*
X373028Y237296D01*
X373065Y237000D01*
X373121Y236685D01*
X373195Y236371D01*
X373288Y236074D01*
X373306Y236037D01*
X373343Y235945D01*
X373399Y235815D01*
X373491Y235630D01*
X373602Y235445D01*
X373751Y235241D01*
X373899Y235037D01*
X374065Y234852D01*
X374084Y234834D01*
X374140Y234778D01*
X374251Y234704D01*
X374362Y234593D01*
X374528Y234482D01*
X374695Y234371D01*
X374899Y234278D01*
X375102Y234186D01*
X375121D01*
X375214Y234149D01*
X375325Y234130D01*
X375473Y234093D01*
X375639Y234056D01*
X375843Y234037D01*
X376269Y234000D01*
X376362D01*
X376491Y234019D01*
X376639D01*
X376806Y234037D01*
X376991Y234074D01*
X377398Y234186D01*
X377417Y234204D01*
X377491Y234223D01*
X377584Y234260D01*
X377713Y234315D01*
X378009Y234463D01*
X378306Y234630D01*
X378324Y234648D01*
X378380Y234667D01*
X378454Y234723D01*
X378546Y234778D01*
X378769Y234945D01*
X379009Y235130D01*
X379028Y235149D01*
X379065Y235167D01*
X379120Y235222D01*
X379194Y235278D01*
X379380Y235426D01*
X379565Y235593D01*
X379843D01*
Y232741D01*
X379824D01*
X379787Y232723D01*
X379713Y232686D01*
X379620Y232649D01*
X379509Y232593D01*
X379380Y232538D01*
X379065Y232390D01*
X379046D01*
X378991Y232352D01*
X378898Y232315D01*
X378787Y232278D01*
X378658Y232223D01*
X378509Y232167D01*
X378176Y232056D01*
X378158D01*
X378083Y232038D01*
X377972Y232001D01*
X377824Y231964D01*
X377658Y231927D01*
X377472Y231889D01*
X377102Y231815D01*
X377084D01*
X377010Y231797D01*
X376898Y231778D01*
X376750D01*
X376565Y231760D01*
X376325Y231741D01*
X376065Y231723D01*
X375639D01*
X375491Y231741D01*
X375306D01*
X375084Y231778D01*
X374806Y231815D01*
X374510Y231852D01*
X374195Y231927D01*
X373862Y232019D01*
X373510Y232130D01*
X373158Y232260D01*
X372806Y232408D01*
X372436Y232593D01*
X372103Y232815D01*
X371769Y233075D01*
X371455Y233352D01*
X371436Y233371D01*
X371381Y233426D01*
X371306Y233519D01*
X371214Y233649D01*
X371084Y233815D01*
X370955Y234019D01*
X370807Y234260D01*
X370658Y234537D01*
X370510Y234852D01*
X370362Y235186D01*
X370233Y235574D01*
X370103Y235982D01*
X370010Y236426D01*
X369936Y236908D01*
X369881Y237426D01*
X369862Y237963D01*
Y238000D01*
Y238093D01*
X369881Y238241D01*
Y238444D01*
X369918Y238685D01*
X369955Y238963D01*
X369992Y239278D01*
X370066Y239611D01*
X370140Y239963D01*
X370251Y240333D01*
X370381Y240722D01*
X370529Y241111D01*
X370714Y241481D01*
X370936Y241852D01*
X371177Y242203D01*
X371455Y242537D01*
X371473Y242555D01*
X371529Y242611D01*
X371621Y242703D01*
X371751Y242796D01*
X371899Y242925D01*
X372103Y243074D01*
X372325Y243222D01*
X372584Y243388D01*
X372880Y243555D01*
X373195Y243703D01*
X373565Y243851D01*
X373936Y243981D01*
X374343Y244092D01*
X374788Y244166D01*
X375251Y244222D01*
X375751Y244240D01*
X376010D01*
X376176Y244222D01*
D02*
G37*
G36*
X385842Y244259D02*
X386101Y244240D01*
X386398Y244203D01*
X386712Y244147D01*
X387027Y244074D01*
X387342Y243981D01*
X387360D01*
X387379Y243962D01*
X387472Y243925D01*
X387638Y243851D01*
X387823Y243759D01*
X388046Y243629D01*
X388286Y243481D01*
X388527Y243296D01*
X388749Y243074D01*
X388786Y243036D01*
X388860Y242944D01*
X388990Y242796D01*
X389138Y242592D01*
X389305Y242333D01*
X389471Y242018D01*
X389638Y241666D01*
X389786Y241277D01*
Y241259D01*
X389805Y241222D01*
X389823Y241166D01*
X389842Y241092D01*
X389860Y240981D01*
X389897Y240852D01*
X389934Y240703D01*
X389971Y240555D01*
X390027Y240166D01*
X390082Y239722D01*
X390119Y239222D01*
X390138Y238667D01*
Y238648D01*
Y238592D01*
Y238519D01*
Y238407D01*
X390119Y238278D01*
Y238111D01*
X390101Y237926D01*
Y237741D01*
X390045Y237296D01*
X389990Y236815D01*
X389897Y236334D01*
X389767Y235834D01*
Y235815D01*
X389749Y235778D01*
X389730Y235704D01*
X389693Y235611D01*
X389656Y235519D01*
X389619Y235389D01*
X389490Y235074D01*
X389342Y234741D01*
X389156Y234371D01*
X388916Y234000D01*
X388657Y233649D01*
Y233630D01*
X388619Y233612D01*
X388527Y233500D01*
X388342Y233315D01*
X388120Y233112D01*
X387842Y232889D01*
X387509Y232649D01*
X387138Y232408D01*
X386731Y232204D01*
X386712D01*
X386675Y232186D01*
X386620Y232167D01*
X386527Y232130D01*
X386416Y232093D01*
X386286Y232056D01*
X386120Y232001D01*
X385953Y231964D01*
X385749Y231927D01*
X385527Y231871D01*
X385046Y231797D01*
X384509Y231741D01*
X383898Y231723D01*
X383694D01*
X383546Y231741D01*
X383361D01*
X383157Y231760D01*
X382713Y231797D01*
X382694D01*
X382620Y231815D01*
X382509D01*
X382379Y231834D01*
X382120Y231889D01*
X382009Y231908D01*
X381917Y231927D01*
Y234297D01*
X382157D01*
X382176Y234278D01*
X382231Y234241D01*
X382305Y234223D01*
X382398Y234186D01*
X382491Y234130D01*
X382768Y234037D01*
X382787D01*
X382842Y234019D01*
X382935Y234000D01*
X383083Y233982D01*
X383250Y233963D01*
X383435Y233945D01*
X383676Y233926D01*
X384157D01*
X384305Y233945D01*
X384472Y233963D01*
X384657Y233982D01*
X385064Y234074D01*
X385083D01*
X385157Y234111D01*
X385268Y234149D01*
X385398Y234204D01*
X385546Y234278D01*
X385712Y234352D01*
X386027Y234574D01*
X386046Y234593D01*
X386101Y234630D01*
X386175Y234723D01*
X386268Y234815D01*
X386379Y234945D01*
X386490Y235093D01*
X386601Y235278D01*
X386712Y235463D01*
X386731Y235482D01*
X386749Y235556D01*
X386805Y235685D01*
X386860Y235834D01*
X386935Y236037D01*
X386990Y236259D01*
X387046Y236519D01*
X387083Y236815D01*
X387046Y236796D01*
X386972Y236741D01*
X386842Y236667D01*
X386694Y236593D01*
X386509Y236482D01*
X386305Y236371D01*
X385879Y236185D01*
X385860D01*
X385787Y236148D01*
X385657Y236130D01*
X385509Y236093D01*
X385305Y236056D01*
X385064Y236019D01*
X384805Y236000D01*
X384509Y235982D01*
X384287D01*
X384120Y236000D01*
X383935Y236019D01*
X383731Y236037D01*
X383305Y236130D01*
X383287D01*
X383213Y236167D01*
X383102Y236204D01*
X382972Y236259D01*
X382805Y236334D01*
X382639Y236426D01*
X382268Y236648D01*
X382250Y236667D01*
X382176Y236741D01*
X382065Y236852D01*
X381917Y237000D01*
X381768Y237167D01*
X381602Y237389D01*
X381435Y237630D01*
X381287Y237907D01*
X381268Y237945D01*
X381231Y238037D01*
X381176Y238204D01*
X381120Y238444D01*
X381046Y238722D01*
X380991Y239056D01*
X380954Y239444D01*
X380935Y239889D01*
Y239907D01*
Y239926D01*
Y239981D01*
Y240055D01*
X380954Y240222D01*
X380972Y240463D01*
X381009Y240722D01*
X381065Y241018D01*
X381139Y241333D01*
X381250Y241629D01*
Y241648D01*
X381268Y241666D01*
X381305Y241759D01*
X381380Y241907D01*
X381491Y242111D01*
X381602Y242314D01*
X381768Y242555D01*
X381954Y242796D01*
X382157Y243018D01*
X382176Y243036D01*
X382268Y243111D01*
X382379Y243222D01*
X382546Y243351D01*
X382750Y243499D01*
X383009Y243666D01*
X383287Y243814D01*
X383583Y243944D01*
X383601D01*
X383620Y243962D01*
X383731Y243999D01*
X383916Y244055D01*
X384138Y244111D01*
X384416Y244166D01*
X384731Y244222D01*
X385101Y244259D01*
X385472Y244277D01*
X385657D01*
X385842Y244259D01*
D02*
G37*
G36*
X139158Y233249D02*
X139361D01*
X139584Y233231D01*
X140028Y233175D01*
X140047D01*
X140121Y233157D01*
X140232Y233138D01*
X140380Y233120D01*
X140547Y233083D01*
X140732Y233046D01*
X141139Y232953D01*
X141158D01*
X141213Y232935D01*
X141287Y232898D01*
X141398Y232861D01*
X141528Y232824D01*
X141695Y232749D01*
X142028Y232620D01*
X142046D01*
X142102Y232583D01*
X142194Y232546D01*
X142306Y232490D01*
X142565Y232379D01*
X142824Y232250D01*
Y229398D01*
X142491D01*
X142472Y229435D01*
X142361Y229527D01*
X142176Y229657D01*
X141954Y229842D01*
X141935Y229861D01*
X141898Y229898D01*
X141824Y229935D01*
X141732Y230009D01*
X141621Y230083D01*
X141509Y230176D01*
X141213Y230361D01*
X141195Y230379D01*
X141139Y230398D01*
X141046Y230453D01*
X140935Y230509D01*
X140787Y230583D01*
X140639Y230657D01*
X140269Y230805D01*
X140250D01*
X140176Y230842D01*
X140084Y230861D01*
X139954Y230898D01*
X139787Y230935D01*
X139621Y230953D01*
X139232Y230990D01*
X139121D01*
X138991Y230972D01*
X138825D01*
X138639Y230935D01*
X138436Y230898D01*
X138232Y230842D01*
X138028Y230768D01*
X138010D01*
X137936Y230731D01*
X137825Y230676D01*
X137695Y230602D01*
X137547Y230509D01*
X137362Y230379D01*
X137177Y230231D01*
X136991Y230065D01*
X136973Y230046D01*
X136917Y229972D01*
X136825Y229879D01*
X136732Y229731D01*
X136602Y229565D01*
X136491Y229342D01*
X136362Y229102D01*
X136251Y228824D01*
X136232Y228787D01*
X136214Y228694D01*
X136158Y228528D01*
X136121Y228305D01*
X136066Y228028D01*
X136010Y227713D01*
X135991Y227361D01*
X135973Y226972D01*
Y226954D01*
Y226917D01*
Y226861D01*
Y226787D01*
X135991Y226583D01*
X136010Y226324D01*
X136047Y226028D01*
X136103Y225713D01*
X136177Y225398D01*
X136269Y225102D01*
X136288Y225065D01*
X136325Y224972D01*
X136380Y224843D01*
X136473Y224658D01*
X136584Y224473D01*
X136732Y224269D01*
X136880Y224065D01*
X137047Y223880D01*
X137065Y223862D01*
X137121Y223806D01*
X137232Y223732D01*
X137343Y223621D01*
X137510Y223510D01*
X137676Y223398D01*
X137880Y223306D01*
X138084Y223213D01*
X138102D01*
X138195Y223176D01*
X138306Y223158D01*
X138454Y223121D01*
X138621Y223084D01*
X138825Y223065D01*
X139250Y223028D01*
X139343D01*
X139473Y223047D01*
X139621D01*
X139787Y223065D01*
X139972Y223102D01*
X140380Y223213D01*
X140398Y223232D01*
X140472Y223250D01*
X140565Y223287D01*
X140695Y223343D01*
X140991Y223491D01*
X141287Y223658D01*
X141306Y223676D01*
X141361Y223695D01*
X141435Y223750D01*
X141528Y223806D01*
X141750Y223973D01*
X141991Y224158D01*
X142009Y224176D01*
X142046Y224195D01*
X142102Y224250D01*
X142176Y224306D01*
X142361Y224454D01*
X142546Y224621D01*
X142824D01*
Y221769D01*
X142806D01*
X142768Y221751D01*
X142695Y221714D01*
X142602Y221677D01*
X142491Y221621D01*
X142361Y221565D01*
X142046Y221417D01*
X142028D01*
X141972Y221380D01*
X141880Y221343D01*
X141769Y221306D01*
X141639Y221251D01*
X141491Y221195D01*
X141158Y221084D01*
X141139D01*
X141065Y221065D01*
X140954Y221028D01*
X140806Y220991D01*
X140639Y220954D01*
X140454Y220917D01*
X140084Y220843D01*
X140065D01*
X139991Y220825D01*
X139880Y220806D01*
X139732D01*
X139547Y220788D01*
X139306Y220769D01*
X139047Y220751D01*
X138621D01*
X138473Y220769D01*
X138287D01*
X138065Y220806D01*
X137788Y220843D01*
X137491Y220880D01*
X137177Y220954D01*
X136843Y221047D01*
X136491Y221158D01*
X136140Y221288D01*
X135788Y221436D01*
X135417Y221621D01*
X135084Y221843D01*
X134751Y222102D01*
X134436Y222380D01*
X134418Y222399D01*
X134362Y222454D01*
X134288Y222547D01*
X134195Y222676D01*
X134066Y222843D01*
X133936Y223047D01*
X133788Y223287D01*
X133640Y223565D01*
X133492Y223880D01*
X133344Y224213D01*
X133214Y224602D01*
X133084Y225009D01*
X132992Y225454D01*
X132918Y225935D01*
X132862Y226454D01*
X132844Y226991D01*
Y227028D01*
Y227120D01*
X132862Y227269D01*
Y227472D01*
X132899Y227713D01*
X132936Y227991D01*
X132973Y228305D01*
X133047Y228639D01*
X133121Y228991D01*
X133232Y229361D01*
X133362Y229750D01*
X133510Y230139D01*
X133695Y230509D01*
X133918Y230879D01*
X134158Y231231D01*
X134436Y231564D01*
X134455Y231583D01*
X134510Y231638D01*
X134603Y231731D01*
X134732Y231824D01*
X134881Y231953D01*
X135084Y232101D01*
X135306Y232250D01*
X135566Y232416D01*
X135862Y232583D01*
X136177Y232731D01*
X136547Y232879D01*
X136917Y233009D01*
X137325Y233120D01*
X137769Y233194D01*
X138232Y233249D01*
X138732Y233268D01*
X138991D01*
X139158Y233249D01*
D02*
G37*
G36*
X152823Y230768D02*
X147694D01*
Y228750D01*
X147787D01*
X147861Y228768D01*
X148046D01*
X148268Y228787D01*
X148379D01*
X148453Y228805D01*
X149101D01*
X149323Y228787D01*
X149564Y228768D01*
X149842Y228731D01*
X150397Y228620D01*
X150434D01*
X150527Y228583D01*
X150657Y228546D01*
X150842Y228491D01*
X151046Y228417D01*
X151249Y228324D01*
X151471Y228213D01*
X151693Y228083D01*
X151731Y228065D01*
X151805Y228009D01*
X151934Y227898D01*
X152082Y227768D01*
X152249Y227602D01*
X152434Y227380D01*
X152619Y227157D01*
X152767Y226880D01*
X152786Y226843D01*
X152823Y226750D01*
X152897Y226583D01*
X152971Y226380D01*
X153027Y226120D01*
X153101Y225806D01*
X153138Y225454D01*
X153156Y225065D01*
Y225047D01*
Y225028D01*
Y224972D01*
Y224898D01*
X153138Y224732D01*
X153119Y224491D01*
X153082Y224213D01*
X153008Y223917D01*
X152934Y223621D01*
X152823Y223306D01*
X152804Y223269D01*
X152767Y223176D01*
X152693Y223028D01*
X152582Y222843D01*
X152453Y222621D01*
X152286Y222399D01*
X152082Y222158D01*
X151860Y221936D01*
X151823Y221917D01*
X151749Y221843D01*
X151620Y221732D01*
X151434Y221602D01*
X151212Y221473D01*
X150971Y221325D01*
X150675Y221176D01*
X150360Y221047D01*
X150342D01*
X150323Y221028D01*
X150268Y221010D01*
X150212Y220991D01*
X150027Y220954D01*
X149768Y220899D01*
X149453Y220825D01*
X149101Y220788D01*
X148675Y220751D01*
X148231Y220732D01*
X148009D01*
X147898Y220751D01*
X147750D01*
X147435Y220769D01*
X147064Y220806D01*
X146694Y220843D01*
X146287Y220899D01*
X145916Y220973D01*
X145898D01*
X145879Y220991D01*
X145824D01*
X145750Y221010D01*
X145583Y221047D01*
X145361Y221103D01*
X145102Y221176D01*
X144842Y221269D01*
X144565Y221362D01*
X144324Y221454D01*
Y224084D01*
X144602D01*
X144620Y224065D01*
X144731Y223991D01*
X144898Y223880D01*
X145102Y223769D01*
X145120D01*
X145157Y223750D01*
X145213Y223713D01*
X145305Y223676D01*
X145398Y223621D01*
X145527Y223565D01*
X145676Y223510D01*
X145842Y223436D01*
X145861D01*
X145916Y223417D01*
X146009Y223380D01*
X146120Y223343D01*
X146250Y223287D01*
X146398Y223250D01*
X146713Y223158D01*
X146731D01*
X146787Y223139D01*
X146879Y223121D01*
X147009Y223102D01*
X147157Y223084D01*
X147324Y223065D01*
X147694Y223047D01*
X147879D01*
X148009Y223065D01*
X148157D01*
X148323Y223102D01*
X148712Y223158D01*
X148731D01*
X148805Y223176D01*
X148897Y223213D01*
X149027Y223250D01*
X149323Y223380D01*
X149453Y223473D01*
X149583Y223584D01*
X149601Y223602D01*
X149620Y223621D01*
X149731Y223750D01*
X149860Y223917D01*
X149972Y224121D01*
Y224139D01*
X149990Y224176D01*
X150027Y224250D01*
X150046Y224343D01*
X150083Y224454D01*
X150101Y224602D01*
X150120Y224769D01*
Y224954D01*
Y224972D01*
Y225028D01*
Y225102D01*
X150101Y225213D01*
X150046Y225435D01*
X149935Y225676D01*
Y225695D01*
X149897Y225732D01*
X149860Y225787D01*
X149823Y225861D01*
X149675Y226028D01*
X149472Y226176D01*
X149453Y226194D01*
X149397Y226213D01*
X149305Y226269D01*
X149194Y226324D01*
X149046Y226380D01*
X148879Y226435D01*
X148694Y226491D01*
X148472Y226528D01*
X148453D01*
X148379Y226546D01*
X148268Y226565D01*
X148138Y226583D01*
X147972D01*
X147805Y226602D01*
X147472Y226620D01*
X147231D01*
X147064Y226602D01*
X146861D01*
X146638Y226583D01*
X146176Y226509D01*
X146157D01*
X146065Y226491D01*
X145953Y226472D01*
X145805Y226435D01*
X145639Y226398D01*
X145454Y226361D01*
X145102Y226287D01*
X144842D01*
Y233046D01*
X152823D01*
Y230768D01*
D02*
G37*
%LPC*%
G36*
X442432Y397992D02*
X442136D01*
X442025Y397974D01*
X441895D01*
X441729Y397937D01*
X441562Y397900D01*
X441395Y397863D01*
X441210Y397789D01*
X441191D01*
X441136Y397752D01*
X441043Y397696D01*
X440932Y397622D01*
X440803Y397529D01*
X440654Y397400D01*
X440506Y397252D01*
X440340Y397066D01*
X440321Y397048D01*
X440284Y396974D01*
X440210Y396881D01*
X440136Y396733D01*
X440025Y396566D01*
X439932Y396344D01*
X439840Y396104D01*
X439747Y395826D01*
Y395789D01*
X439710Y395696D01*
X439673Y395530D01*
X439636Y395307D01*
X439599Y395029D01*
X439562Y394715D01*
X439543Y394363D01*
X439525Y393974D01*
Y393955D01*
Y393918D01*
Y393863D01*
Y393789D01*
X439543Y393585D01*
Y393326D01*
X439581Y393030D01*
X439618Y392733D01*
X439655Y392419D01*
X439729Y392122D01*
X439747Y392085D01*
X439766Y392011D01*
X439821Y391863D01*
X439895Y391697D01*
X439969Y391511D01*
X440080Y391308D01*
X440210Y391104D01*
X440340Y390900D01*
X440358Y390882D01*
X440414Y390826D01*
X440488Y390734D01*
X440599Y390623D01*
X440729Y390512D01*
X440877Y390382D01*
X441043Y390271D01*
X441210Y390178D01*
X441229D01*
X441303Y390141D01*
X441395Y390123D01*
X441525Y390086D01*
X441673Y390048D01*
X441858Y390011D01*
X442043Y389993D01*
X442229Y389975D01*
X442321D01*
X442432Y389993D01*
X442562Y390011D01*
X442710Y390030D01*
X442895Y390067D01*
X443080Y390123D01*
X443265Y390197D01*
X443284Y390215D01*
X443358Y390234D01*
X443451Y390289D01*
X443562Y390363D01*
X443691Y390474D01*
X443839Y390604D01*
X443988Y390752D01*
X444136Y390919D01*
X444154Y390937D01*
X444191Y391011D01*
X444265Y391123D01*
X444358Y391271D01*
X444450Y391437D01*
X444543Y391660D01*
X444636Y391882D01*
X444728Y392141D01*
X444747Y392178D01*
X444765Y392271D01*
X444802Y392419D01*
X444839Y392641D01*
X444876Y392900D01*
X444913Y393215D01*
X444950Y393567D01*
Y393974D01*
Y393993D01*
Y394030D01*
Y394085D01*
Y394159D01*
X444932Y394363D01*
X444913Y394604D01*
X444895Y394900D01*
X444858Y395196D01*
X444784Y395511D01*
X444710Y395807D01*
X444691Y395844D01*
X444673Y395937D01*
X444617Y396066D01*
X444562Y396252D01*
X444469Y396455D01*
X444358Y396659D01*
X444247Y396863D01*
X444117Y397066D01*
X444099Y397085D01*
X444043Y397140D01*
X443969Y397233D01*
X443858Y397344D01*
X443728Y397455D01*
X443580Y397566D01*
X443432Y397677D01*
X443247Y397770D01*
X443228Y397789D01*
X443173Y397807D01*
X443062Y397844D01*
X442932Y397881D01*
X442784Y397918D01*
X442617Y397955D01*
X442432Y397992D01*
D02*
G37*
G36*
Y109992D02*
X442136D01*
X442025Y109974D01*
X441895D01*
X441729Y109937D01*
X441562Y109900D01*
X441395Y109862D01*
X441210Y109789D01*
X441191D01*
X441136Y109751D01*
X441043Y109696D01*
X440932Y109622D01*
X440803Y109529D01*
X440654Y109400D01*
X440506Y109251D01*
X440340Y109066D01*
X440321Y109048D01*
X440284Y108974D01*
X440210Y108881D01*
X440136Y108733D01*
X440025Y108566D01*
X439932Y108344D01*
X439840Y108104D01*
X439747Y107826D01*
Y107789D01*
X439710Y107696D01*
X439673Y107529D01*
X439636Y107307D01*
X439599Y107029D01*
X439562Y106715D01*
X439543Y106363D01*
X439525Y105974D01*
Y105955D01*
Y105919D01*
Y105863D01*
Y105789D01*
X439543Y105585D01*
Y105326D01*
X439581Y105030D01*
X439618Y104733D01*
X439655Y104419D01*
X439729Y104122D01*
X439747Y104085D01*
X439766Y104011D01*
X439821Y103863D01*
X439895Y103696D01*
X439969Y103511D01*
X440080Y103308D01*
X440210Y103104D01*
X440340Y102900D01*
X440358Y102882D01*
X440414Y102826D01*
X440488Y102734D01*
X440599Y102623D01*
X440729Y102512D01*
X440877Y102382D01*
X441043Y102271D01*
X441210Y102178D01*
X441229D01*
X441303Y102141D01*
X441395Y102123D01*
X441525Y102086D01*
X441673Y102049D01*
X441858Y102011D01*
X442043Y101993D01*
X442229Y101974D01*
X442321D01*
X442432Y101993D01*
X442562Y102011D01*
X442710Y102030D01*
X442895Y102067D01*
X443080Y102123D01*
X443265Y102197D01*
X443284Y102215D01*
X443358Y102234D01*
X443451Y102289D01*
X443562Y102363D01*
X443691Y102474D01*
X443839Y102604D01*
X443988Y102752D01*
X444136Y102919D01*
X444154Y102937D01*
X444191Y103011D01*
X444265Y103123D01*
X444358Y103271D01*
X444450Y103437D01*
X444543Y103659D01*
X444636Y103882D01*
X444728Y104141D01*
X444747Y104178D01*
X444765Y104270D01*
X444802Y104419D01*
X444839Y104641D01*
X444876Y104900D01*
X444913Y105215D01*
X444950Y105567D01*
Y105974D01*
Y105993D01*
Y106030D01*
Y106085D01*
Y106159D01*
X444932Y106363D01*
X444913Y106604D01*
X444895Y106900D01*
X444858Y107196D01*
X444784Y107511D01*
X444710Y107807D01*
X444691Y107844D01*
X444673Y107937D01*
X444617Y108066D01*
X444562Y108252D01*
X444469Y108455D01*
X444358Y108659D01*
X444247Y108863D01*
X444117Y109066D01*
X444099Y109085D01*
X444043Y109140D01*
X443969Y109233D01*
X443858Y109344D01*
X443728Y109455D01*
X443580Y109566D01*
X443432Y109677D01*
X443247Y109770D01*
X443228Y109789D01*
X443173Y109807D01*
X443062Y109844D01*
X442932Y109881D01*
X442784Y109918D01*
X442617Y109955D01*
X442432Y109992D01*
D02*
G37*
G36*
X460552Y269073D02*
X459849D01*
Y261537D01*
X461052D01*
X461330Y261555D01*
X461645D01*
X461738Y261574D01*
X461867Y261592D01*
X462034Y261629D01*
X462238Y261685D01*
X462460Y261759D01*
X462700Y261870D01*
X462941Y262000D01*
X462978Y262018D01*
X463071Y262092D01*
X463200Y262185D01*
X463367Y262333D01*
X463552Y262518D01*
X463737Y262740D01*
X463923Y262981D01*
X464089Y263277D01*
Y263296D01*
X464108Y263314D01*
X464145Y263426D01*
X464219Y263611D01*
X464293Y263851D01*
X464348Y264129D01*
X464422Y264481D01*
X464459Y264870D01*
X464478Y265296D01*
Y265314D01*
Y265351D01*
Y265407D01*
Y265499D01*
X464459Y265592D01*
Y265721D01*
X464422Y265999D01*
X464367Y266314D01*
X464293Y266666D01*
X464200Y266999D01*
X464052Y267332D01*
Y267351D01*
X464034Y267369D01*
X463978Y267481D01*
X463885Y267629D01*
X463737Y267814D01*
X463571Y268036D01*
X463349Y268258D01*
X463089Y268462D01*
X462793Y268666D01*
X462775Y268684D01*
X462682Y268721D01*
X462571Y268777D01*
X462404Y268832D01*
X462200Y268906D01*
X461997Y268962D01*
X461756Y269018D01*
X461497Y269036D01*
X461386D01*
X461238Y269055D01*
X460812D01*
X460552Y269073D01*
D02*
G37*
G36*
Y237073D02*
X459849D01*
Y229537D01*
X461052D01*
X461330Y229555D01*
X461645D01*
X461738Y229574D01*
X461867Y229592D01*
X462034Y229629D01*
X462238Y229685D01*
X462460Y229759D01*
X462700Y229870D01*
X462941Y230000D01*
X462978Y230018D01*
X463071Y230092D01*
X463200Y230185D01*
X463367Y230333D01*
X463552Y230518D01*
X463737Y230740D01*
X463923Y230981D01*
X464089Y231277D01*
Y231296D01*
X464108Y231314D01*
X464145Y231425D01*
X464219Y231611D01*
X464293Y231851D01*
X464348Y232129D01*
X464422Y232481D01*
X464459Y232870D01*
X464478Y233296D01*
Y233314D01*
Y233351D01*
Y233407D01*
Y233499D01*
X464459Y233592D01*
Y233722D01*
X464422Y233999D01*
X464367Y234314D01*
X464293Y234666D01*
X464200Y234999D01*
X464052Y235333D01*
Y235351D01*
X464034Y235369D01*
X463978Y235481D01*
X463885Y235629D01*
X463737Y235814D01*
X463571Y236036D01*
X463349Y236258D01*
X463089Y236462D01*
X462793Y236666D01*
X462775Y236684D01*
X462682Y236721D01*
X462571Y236777D01*
X462404Y236832D01*
X462200Y236906D01*
X461997Y236962D01*
X461756Y237017D01*
X461497Y237036D01*
X461386D01*
X461238Y237055D01*
X460812D01*
X460552Y237073D01*
D02*
G37*
G36*
X60553D02*
X59849D01*
Y229537D01*
X61052D01*
X61330Y229555D01*
X61645D01*
X61737Y229574D01*
X61867Y229592D01*
X62034Y229629D01*
X62238Y229685D01*
X62460Y229759D01*
X62700Y229870D01*
X62941Y230000D01*
X62978Y230018D01*
X63071Y230092D01*
X63200Y230185D01*
X63367Y230333D01*
X63552Y230518D01*
X63737Y230740D01*
X63923Y230981D01*
X64089Y231277D01*
Y231296D01*
X64108Y231314D01*
X64145Y231425D01*
X64219Y231611D01*
X64293Y231851D01*
X64348Y232129D01*
X64422Y232481D01*
X64460Y232870D01*
X64478Y233296D01*
Y233314D01*
Y233351D01*
Y233407D01*
Y233499D01*
X64460Y233592D01*
Y233722D01*
X64422Y233999D01*
X64367Y234314D01*
X64293Y234666D01*
X64200Y234999D01*
X64052Y235333D01*
Y235351D01*
X64034Y235369D01*
X63978Y235481D01*
X63885Y235629D01*
X63737Y235814D01*
X63571Y236036D01*
X63348Y236258D01*
X63089Y236462D01*
X62793Y236666D01*
X62775Y236684D01*
X62682Y236721D01*
X62571Y236777D01*
X62404Y236832D01*
X62200Y236906D01*
X61997Y236962D01*
X61756Y237017D01*
X61497Y237036D01*
X61386D01*
X61238Y237055D01*
X60812D01*
X60553Y237073D01*
D02*
G37*
G36*
X145333Y472898D02*
X145222D01*
X145129Y472880D01*
X144925Y472861D01*
X144685Y472806D01*
X144666D01*
X144629Y472787D01*
X144555Y472769D01*
X144481Y472750D01*
X144277Y472695D01*
X144055Y472602D01*
Y472583D01*
Y472546D01*
Y472454D01*
Y472343D01*
Y472306D01*
Y472213D01*
Y472065D01*
Y471880D01*
Y471861D01*
Y471843D01*
Y471787D01*
Y471713D01*
X144074Y471528D01*
Y471287D01*
X144092Y471009D01*
X144129Y470732D01*
X144166Y470472D01*
X144222Y470213D01*
Y470195D01*
X144259Y470102D01*
X144296Y469991D01*
X144351Y469861D01*
X144500Y469547D01*
X144592Y469398D01*
X144685Y469269D01*
X144703Y469250D01*
X144722Y469232D01*
X144814Y469121D01*
X144962Y469010D01*
X145148Y468899D01*
X145166D01*
X145203Y468880D01*
X145259Y468862D01*
X145333Y468843D01*
X145499Y468806D01*
X145722Y468787D01*
X145814D01*
X145888Y468806D01*
X146055Y468843D01*
X146259Y468899D01*
X146277D01*
X146314Y468917D01*
X146425Y468991D01*
X146573Y469102D01*
X146721Y469269D01*
X146740Y469287D01*
X146759Y469324D01*
X146814Y469380D01*
X146851Y469454D01*
X146981Y469639D01*
X147092Y469880D01*
Y469898D01*
X147110Y469954D01*
X147129Y470028D01*
X147166Y470139D01*
X147184Y470287D01*
X147203Y470472D01*
X147221Y470695D01*
Y470935D01*
Y470954D01*
Y471028D01*
Y471139D01*
X147203Y471269D01*
X147166Y471584D01*
X147129Y471732D01*
X147073Y471880D01*
Y471898D01*
X147055Y471954D01*
X147018Y472009D01*
X146962Y472102D01*
X146833Y472306D01*
X146648Y472491D01*
X146629Y472509D01*
X146610Y472528D01*
X146555Y472565D01*
X146481Y472620D01*
X146296Y472713D01*
X146055Y472806D01*
X146036D01*
X145999Y472824D01*
X145925Y472843D01*
X145833Y472861D01*
X145611Y472880D01*
X145333Y472898D01*
D02*
G37*
G36*
X145889Y355592D02*
X145593D01*
X145482Y355574D01*
X145352D01*
X145186Y355536D01*
X145019Y355499D01*
X144853Y355462D01*
X144667Y355388D01*
X144649D01*
X144593Y355351D01*
X144501Y355296D01*
X144390Y355222D01*
X144260Y355129D01*
X144112Y355000D01*
X143964Y354851D01*
X143797Y354666D01*
X143778Y354648D01*
X143742Y354574D01*
X143667Y354481D01*
X143593Y354333D01*
X143482Y354166D01*
X143390Y353944D01*
X143297Y353703D01*
X143204Y353426D01*
Y353388D01*
X143167Y353296D01*
X143130Y353129D01*
X143093Y352907D01*
X143056Y352629D01*
X143019Y352315D01*
X143001Y351963D01*
X142982Y351574D01*
Y351555D01*
Y351518D01*
Y351463D01*
Y351389D01*
X143001Y351185D01*
Y350926D01*
X143038Y350630D01*
X143075Y350333D01*
X143112Y350019D01*
X143186Y349722D01*
X143204Y349685D01*
X143223Y349611D01*
X143279Y349463D01*
X143353Y349296D01*
X143427Y349111D01*
X143538Y348908D01*
X143667Y348704D01*
X143797Y348500D01*
X143816Y348482D01*
X143871Y348426D01*
X143945Y348334D01*
X144056Y348222D01*
X144186Y348111D01*
X144334Y347982D01*
X144501Y347871D01*
X144667Y347778D01*
X144686D01*
X144760Y347741D01*
X144853Y347723D01*
X144982Y347685D01*
X145130Y347648D01*
X145315Y347611D01*
X145501Y347593D01*
X145686Y347574D01*
X145778D01*
X145889Y347593D01*
X146019Y347611D01*
X146167Y347630D01*
X146352Y347667D01*
X146538Y347723D01*
X146723Y347797D01*
X146741Y347815D01*
X146815Y347834D01*
X146908Y347889D01*
X147019Y347963D01*
X147149Y348074D01*
X147297Y348204D01*
X147445Y348352D01*
X147593Y348519D01*
X147612Y348537D01*
X147648Y348611D01*
X147723Y348722D01*
X147815Y348871D01*
X147908Y349037D01*
X148000Y349259D01*
X148093Y349482D01*
X148186Y349741D01*
X148204Y349778D01*
X148223Y349870D01*
X148259Y350019D01*
X148297Y350241D01*
X148334Y350500D01*
X148371Y350815D01*
X148408Y351167D01*
Y351574D01*
Y351592D01*
Y351629D01*
Y351685D01*
Y351759D01*
X148389Y351963D01*
X148371Y352203D01*
X148352Y352500D01*
X148315Y352796D01*
X148241Y353111D01*
X148167Y353407D01*
X148148Y353444D01*
X148130Y353537D01*
X148074Y353666D01*
X148019Y353852D01*
X147926Y354055D01*
X147815Y354259D01*
X147704Y354463D01*
X147574Y354666D01*
X147556Y354685D01*
X147500Y354740D01*
X147426Y354833D01*
X147315Y354944D01*
X147186Y355055D01*
X147037Y355166D01*
X146889Y355277D01*
X146704Y355370D01*
X146686Y355388D01*
X146630Y355407D01*
X146519Y355444D01*
X146389Y355481D01*
X146241Y355518D01*
X146075Y355555D01*
X145889Y355592D01*
D02*
G37*
G36*
X144149Y116592D02*
X143852D01*
X143741Y116573D01*
X143612D01*
X143445Y116537D01*
X143278Y116499D01*
X143112Y116462D01*
X142927Y116388D01*
X142908D01*
X142852Y116351D01*
X142760Y116296D01*
X142649Y116222D01*
X142519Y116129D01*
X142371Y115999D01*
X142223Y115851D01*
X142056Y115666D01*
X142038Y115648D01*
X142001Y115574D01*
X141927Y115481D01*
X141853Y115333D01*
X141742Y115166D01*
X141649Y114944D01*
X141556Y114703D01*
X141464Y114426D01*
Y114389D01*
X141427Y114296D01*
X141390Y114129D01*
X141353Y113907D01*
X141316Y113629D01*
X141279Y113315D01*
X141260Y112963D01*
X141242Y112574D01*
Y112555D01*
Y112518D01*
Y112463D01*
Y112389D01*
X141260Y112185D01*
Y111926D01*
X141297Y111630D01*
X141334Y111333D01*
X141371Y111018D01*
X141445Y110722D01*
X141464Y110685D01*
X141482Y110611D01*
X141538Y110463D01*
X141612Y110296D01*
X141686Y110111D01*
X141797Y109908D01*
X141927Y109704D01*
X142056Y109500D01*
X142075Y109482D01*
X142130Y109426D01*
X142204Y109333D01*
X142316Y109222D01*
X142445Y109111D01*
X142593Y108982D01*
X142760Y108871D01*
X142927Y108778D01*
X142945D01*
X143019Y108741D01*
X143112Y108722D01*
X143241Y108685D01*
X143390Y108648D01*
X143575Y108611D01*
X143760Y108593D01*
X143945Y108574D01*
X144038D01*
X144149Y108593D01*
X144278Y108611D01*
X144426Y108630D01*
X144612Y108667D01*
X144797Y108722D01*
X144982Y108797D01*
X145000Y108815D01*
X145075Y108834D01*
X145167Y108889D01*
X145278Y108963D01*
X145408Y109074D01*
X145556Y109204D01*
X145704Y109352D01*
X145852Y109519D01*
X145871Y109537D01*
X145908Y109611D01*
X145982Y109722D01*
X146074Y109871D01*
X146167Y110037D01*
X146259Y110259D01*
X146352Y110482D01*
X146445Y110741D01*
X146463Y110778D01*
X146482Y110870D01*
X146519Y111018D01*
X146556Y111241D01*
X146593Y111500D01*
X146630Y111815D01*
X146667Y112167D01*
Y112574D01*
Y112592D01*
Y112629D01*
Y112685D01*
Y112759D01*
X146648Y112963D01*
X146630Y113203D01*
X146611Y113500D01*
X146574Y113796D01*
X146500Y114111D01*
X146426Y114407D01*
X146408Y114444D01*
X146389Y114537D01*
X146334Y114666D01*
X146278Y114852D01*
X146186Y115055D01*
X146074Y115259D01*
X145963Y115463D01*
X145834Y115666D01*
X145815Y115685D01*
X145760Y115740D01*
X145686Y115833D01*
X145574Y115944D01*
X145445Y116055D01*
X145297Y116166D01*
X145149Y116277D01*
X144963Y116370D01*
X144945Y116388D01*
X144889Y116407D01*
X144778Y116444D01*
X144649Y116481D01*
X144501Y116518D01*
X144334Y116555D01*
X144149Y116592D01*
D02*
G37*
G36*
X390851Y410064D02*
X390814D01*
X390703Y410046D01*
X390555Y410009D01*
X390369Y409953D01*
X390166Y409842D01*
X389962Y409676D01*
X389869Y409583D01*
X389777Y409453D01*
X389684Y409324D01*
X389610Y409157D01*
Y409139D01*
X389592Y409120D01*
X389573Y409064D01*
X389555Y408972D01*
X389518Y408879D01*
X389499Y408750D01*
X389462Y408602D01*
X389425Y408416D01*
X389388Y408213D01*
X389351Y407990D01*
X389332Y407731D01*
X389295Y407435D01*
X389277Y407120D01*
X389258Y406768D01*
X389240Y406398D01*
Y405991D01*
Y405972D01*
Y405898D01*
Y405787D01*
Y405639D01*
X389258Y405454D01*
Y405232D01*
X389277Y405009D01*
X389295Y404769D01*
X389332Y404250D01*
X389388Y403732D01*
X389444Y403473D01*
X389481Y403250D01*
X389555Y403028D01*
X389610Y402843D01*
Y402824D01*
X389629Y402806D01*
X389684Y402695D01*
X389777Y402565D01*
X389906Y402398D01*
X390073Y402232D01*
X390295Y402084D01*
X390555Y401973D01*
X390703Y401954D01*
X390851Y401936D01*
X390888D01*
X390999Y401954D01*
X391147Y401991D01*
X391332Y402047D01*
X391517Y402158D01*
X391721Y402324D01*
X391832Y402417D01*
X391906Y402547D01*
X391999Y402676D01*
X392073Y402843D01*
Y402861D01*
X392091Y402880D01*
X392110Y402935D01*
X392128Y403028D01*
X392165Y403121D01*
X392202Y403250D01*
X392239Y403398D01*
X392276Y403584D01*
X392295Y403787D01*
X392332Y404028D01*
X392369Y404269D01*
X392406Y404565D01*
X392425Y404880D01*
X392443Y405213D01*
X392462Y405583D01*
Y405991D01*
Y406009D01*
Y406083D01*
Y406213D01*
Y406361D01*
X392443Y406546D01*
Y406750D01*
X392425Y406991D01*
Y407231D01*
X392369Y407750D01*
X392313Y408287D01*
X392258Y408527D01*
X392221Y408768D01*
X392165Y408972D01*
X392091Y409157D01*
Y409176D01*
X392073Y409194D01*
X392017Y409305D01*
X391925Y409453D01*
X391795Y409620D01*
X391628Y409787D01*
X391406Y409916D01*
X391147Y410027D01*
X391017Y410046D01*
X390851Y410064D01*
D02*
G37*
G36*
X385472Y242222D02*
X385379D01*
X385305Y242203D01*
X385120Y242185D01*
X384935Y242111D01*
X384916D01*
X384898Y242092D01*
X384787Y242018D01*
X384638Y241907D01*
X384453Y241722D01*
Y241703D01*
X384416Y241685D01*
X384379Y241629D01*
X384342Y241555D01*
X384287Y241463D01*
X384212Y241333D01*
X384157Y241203D01*
X384101Y241037D01*
Y241018D01*
X384083Y240963D01*
X384064Y240870D01*
X384046Y240741D01*
X384009Y240592D01*
X383990Y240426D01*
X383972Y240037D01*
Y240018D01*
Y239944D01*
Y239833D01*
X383990Y239704D01*
X384027Y239389D01*
X384120Y239074D01*
Y239056D01*
X384138Y239018D01*
X384175Y238944D01*
X384231Y238870D01*
X384342Y238667D01*
X384509Y238481D01*
X384527D01*
X384564Y238444D01*
X384601Y238407D01*
X384675Y238352D01*
X384861Y238259D01*
X385101Y238167D01*
X385120D01*
X385157Y238148D01*
X385231D01*
X385323Y238130D01*
X385435Y238111D01*
X385564D01*
X385842Y238093D01*
X385972D01*
X386046Y238111D01*
X386268Y238130D01*
X386527Y238185D01*
X386546D01*
X386583Y238204D01*
X386657Y238222D01*
X386731Y238241D01*
X386916Y238296D01*
X387101Y238370D01*
Y238389D01*
Y238444D01*
Y238519D01*
X387120Y238630D01*
Y238667D01*
X387138Y238759D01*
Y238907D01*
Y239111D01*
Y239130D01*
Y239148D01*
Y239204D01*
Y239278D01*
Y239463D01*
X387120Y239685D01*
X387101Y239944D01*
X387064Y240203D01*
X387027Y240481D01*
X386972Y240722D01*
Y240759D01*
X386935Y240833D01*
X386897Y240944D01*
X386860Y241092D01*
X386712Y241426D01*
X386620Y241574D01*
X386509Y241722D01*
X386490Y241740D01*
X386472Y241759D01*
X386361Y241870D01*
X386212Y241981D01*
X386027Y242092D01*
X386009D01*
X385990Y242111D01*
X385935Y242129D01*
X385860Y242166D01*
X385675Y242203D01*
X385472Y242222D01*
D02*
G37*
%LPD*%
D10*
X144825Y415000D02*
G03*
X151175Y415000I3175J0D01*
G01*
X143825Y175000D02*
G03*
X150175Y175000I3175J0D01*
G01*
X119000Y181000D02*
X167000D01*
Y213000D01*
X119000D02*
X167000D01*
X119000Y181000D02*
Y213000D01*
X128000Y415000D02*
X144825D01*
X128000Y365000D02*
X168000D01*
X151175Y415000D02*
X168000D01*
X150175Y175000D02*
X167000D01*
X127000Y125000D02*
X167000D01*
X127000Y175000D02*
X143825D01*
X115000Y459000D02*
X163000D01*
X115000Y427000D02*
Y459000D01*
Y427000D02*
X163000D01*
Y459000D01*
X197000Y452000D02*
X323000D01*
X197000Y326000D02*
X323000D01*
X197000Y421000D02*
Y452000D01*
Y326000D02*
Y357000D01*
X323000Y326000D02*
Y357000D01*
Y421000D02*
Y452000D01*
X199000Y68000D02*
X325000D01*
X199000Y194000D02*
X325000D01*
Y68000D02*
Y99000D01*
Y163000D02*
Y194000D01*
X199000Y163000D02*
Y194000D01*
Y68000D02*
Y99000D01*
X352000Y279000D02*
Y381000D01*
Y279000D02*
X408000D01*
Y381000D01*
X352000D02*
X408000D01*
X352000Y387000D02*
X408000D01*
Y381000D02*
Y387000D01*
X352000Y381000D02*
Y387000D01*
X408000Y119000D02*
Y221000D01*
X352000D02*
X408000D01*
X352000Y119000D02*
Y221000D01*
Y119000D02*
X408000D01*
X352000Y113000D02*
X408000D01*
X352000D02*
Y119000D01*
X408000Y113000D02*
Y119000D01*
X97000Y171000D02*
Y168001D01*
Y169501D01*
X105997D01*
X104498Y171000D01*
X96000Y410000D02*
Y407001D01*
Y408501D01*
X104997D01*
X103498Y410000D01*
M02*
