G04*
G04 #@! TF.GenerationSoftware,Altium Limited,Altium Designer,22.5.1 (42)*
G04*
G04 Layer_Color=16711935*
%FSLAX44Y44*%
%MOMM*%
G71*
G04*
G04 #@! TF.SameCoordinates,E804C49B-AF08-44B7-9E18-E1C260B47F38*
G04*
G04*
G04 #@! TF.FilePolarity,Negative*
G04*
G01*
G75*
%ADD22C,4.2032*%
%ADD38R,1.1032X1.5032*%
%ADD39R,1.1032X1.8032*%
%ADD40R,0.9032X1.5032*%
%ADD41R,1.5032X0.9032*%
%ADD42R,0.3316X0.7016*%
%ADD43R,0.7016X0.3316*%
%ADD44R,3.4016X3.4016*%
D22*
X450000Y300000D02*
D03*
Y200000D02*
D03*
Y360000D02*
D03*
Y140000D02*
D03*
X50000Y200000D02*
D03*
Y300000D02*
D03*
D38*
X308500Y351000D02*
D03*
X327500D02*
D03*
X309500Y273333D02*
D03*
X328500D02*
D03*
X183500Y296000D02*
D03*
X202500D02*
D03*
X181500Y192000D02*
D03*
X200500D02*
D03*
X309500Y300000D02*
D03*
X328500D02*
D03*
X202500Y244000D02*
D03*
X183500D02*
D03*
X309500Y246667D02*
D03*
X328500D02*
D03*
D39*
X309500Y219000D02*
D03*
X340500D02*
D03*
D40*
X253500Y406000D02*
D03*
X272500D02*
D03*
X272500Y358000D02*
D03*
X253500D02*
D03*
X272500Y382000D02*
D03*
X253500D02*
D03*
X272500Y334000D02*
D03*
X253500D02*
D03*
X140500Y323500D02*
D03*
X159500D02*
D03*
X140500Y350000D02*
D03*
X159500D02*
D03*
X308500Y326000D02*
D03*
X327500D02*
D03*
X184500Y270000D02*
D03*
X203500D02*
D03*
X183500Y218000D02*
D03*
X202500D02*
D03*
X159500Y270500D02*
D03*
X140500D02*
D03*
X159500Y297000D02*
D03*
X140500D02*
D03*
X159500Y244000D02*
D03*
X140500D02*
D03*
D41*
X322000Y195500D02*
D03*
Y176500D02*
D03*
X273500D02*
D03*
Y195500D02*
D03*
X297750Y176500D02*
D03*
Y195500D02*
D03*
X225000Y176500D02*
D03*
Y195500D02*
D03*
X249250Y195500D02*
D03*
Y176500D02*
D03*
X261000Y295500D02*
D03*
Y314500D02*
D03*
D42*
X271500Y225000D02*
D03*
X241500Y273000D02*
D03*
Y225000D02*
D03*
X271500Y273000D02*
D03*
X251500D02*
D03*
X246500D02*
D03*
X251500Y225000D02*
D03*
X236500Y273000D02*
D03*
Y225000D02*
D03*
X256500D02*
D03*
X266500Y273000D02*
D03*
X261500Y225000D02*
D03*
X246500D02*
D03*
X266500D02*
D03*
X261500Y273000D02*
D03*
X256500D02*
D03*
D43*
X230000Y266500D02*
D03*
Y231500D02*
D03*
Y261500D02*
D03*
Y236500D02*
D03*
X278000Y251500D02*
D03*
Y246500D02*
D03*
Y241500D02*
D03*
Y266500D02*
D03*
X230000Y246500D02*
D03*
X278000Y256500D02*
D03*
Y261500D02*
D03*
X230000Y241500D02*
D03*
X278000Y236500D02*
D03*
Y231500D02*
D03*
X230000Y251500D02*
D03*
Y256500D02*
D03*
D44*
X254000Y249000D02*
D03*
M02*
