G04*
G04 #@! TF.GenerationSoftware,Altium Limited,Altium Designer,22.5.1 (42)*
G04*
G04 Layer_Physical_Order=3*
G04 Layer_Color=36540*
%FSLAX44Y44*%
%MOMM*%
G71*
G04*
G04 #@! TF.SameCoordinates,E804C49B-AF08-44B7-9E18-E1C260B47F38*
G04*
G04*
G04 #@! TF.FilePolarity,Positive*
G04*
G01*
G75*
%ADD10C,0.2000*%
%ADD24C,0.6000*%
%ADD29C,1.0000*%
%ADD30C,0.8000*%
D10*
X253000Y212000D02*
X308000D01*
X321000Y225000D02*
Y240000D01*
X308000Y212000D02*
X321000Y225000D01*
X246000Y245000D02*
X316000D01*
X321000Y240000D01*
X233000Y258000D02*
X246000Y245000D01*
X169000Y319828D02*
X172000Y322828D01*
X169000Y305000D02*
X193000Y281000D01*
X172000Y322828D02*
Y323000D01*
X169000Y305000D02*
Y319828D01*
X193000Y281000D02*
X210032D01*
X233000Y258000D02*
Y258032D01*
X210032Y281000D02*
X233000Y258032D01*
D24*
X310000Y196000D02*
D03*
X142000Y405000D02*
D03*
X139000Y166000D02*
D03*
X142000Y131000D02*
D03*
Y371000D02*
D03*
X187000D02*
D03*
X205000Y173000D02*
D03*
X368000Y118000D02*
D03*
X350000Y389000D02*
D03*
X215000Y263000D02*
D03*
X172000Y323000D02*
D03*
X188000Y131000D02*
D03*
X196000Y313000D02*
D03*
X229000Y285000D02*
D03*
X262310Y282342D02*
D03*
X126000Y244000D02*
D03*
X310000Y234000D02*
D03*
X253000Y212000D02*
D03*
X238000D02*
D03*
X219000Y230000D02*
D03*
D29*
X310000Y164000D02*
Y196000D01*
Y164000D02*
X356000Y118000D01*
X368000D01*
X142000Y393000D02*
X182000Y353000D01*
X142000Y393000D02*
Y405000D01*
X139000Y166000D02*
X143000Y162000D01*
X156000D01*
X194000Y200000D01*
X142358Y121358D02*
Y130642D01*
X72000Y97000D02*
X118000D01*
X142358Y121358D01*
X142000Y131000D02*
X142358Y130642D01*
X182000Y308000D02*
Y353000D01*
X142000Y315000D02*
X194000Y263000D01*
X142000Y315000D02*
Y371000D01*
X85000Y186000D02*
Y208000D01*
X58000Y111000D02*
Y159000D01*
X85000Y186000D01*
X58000Y111000D02*
X72000Y97000D01*
X205000Y322000D02*
Y353000D01*
X187000Y371000D02*
X205000Y353000D01*
X196000Y313000D02*
X205000Y322000D01*
Y148000D02*
Y173000D01*
X188000Y131000D02*
X205000Y148000D01*
X85000Y208000D02*
X99000Y222000D01*
X211000D02*
X219000Y230000D01*
X99000Y222000D02*
X211000D01*
X194000Y263000D02*
X215000D01*
X332000Y389000D02*
X350000D01*
X262310Y282342D02*
Y319310D01*
X332000Y389000D01*
X194000Y200000D02*
X226000D01*
X238000Y212000D01*
X191674Y298326D02*
X215674D01*
X182000Y308000D02*
X191674Y298326D01*
X215674D02*
X229000Y285000D01*
D30*
X178728Y258000D02*
X194728Y242000D01*
X225000D01*
X126000Y244000D02*
X140000Y258000D01*
X178728D01*
X225000Y242000D02*
X237884Y229116D01*
X295116D01*
X310000Y234000D01*
M02*
