G04*
G04 #@! TF.GenerationSoftware,Altium Limited,Altium Designer,22.5.1 (42)*
G04*
G04 Layer_Physical_Order=2*
G04 Layer_Color=32768*
%FSLAX44Y44*%
%MOMM*%
G71*
G04*
G04 #@! TF.SameCoordinates,E804C49B-AF08-44B7-9E18-E1C260B47F38*
G04*
G04*
G04 #@! TF.FilePolarity,Negative*
G04*
G01*
G75*
%ADD25C,1.0160*%
G04:AMPARAMS|DCode=26|XSize=3.516mm|YSize=3.516mm|CornerRadius=0mm|HoleSize=0mm|Usage=FLASHONLY|Rotation=0.000|XOffset=0mm|YOffset=0mm|HoleType=Round|Shape=Relief|Width=1mm|Gap=0.5mm|Entries=4|*
%AMTHD26*
7,0,0,3.5160,2.5160,1.0000,45*
%
%ADD26THD26*%
%ADD27C,2.5160*%
%ADD28C,1.3160*%
D25*
X0Y0D02*
Y500000D01*
X500000D01*
Y0D02*
Y500000D01*
X0Y0D02*
X500000D01*
D26*
X450000Y300000D02*
D03*
Y200000D02*
D03*
X50000D02*
D03*
D27*
X450000Y360000D02*
D03*
Y140000D02*
D03*
X50000Y300000D02*
D03*
D28*
X310000Y196000D02*
D03*
X142000Y405000D02*
D03*
X139000Y166000D02*
D03*
X142000Y131000D02*
D03*
Y371000D02*
D03*
X187000D02*
D03*
X297000Y327000D02*
D03*
X205000Y173000D02*
D03*
X319000Y261000D02*
D03*
X125000Y275000D02*
D03*
X126000Y323500D02*
D03*
X368000Y118000D02*
D03*
X350000Y389000D02*
D03*
X273000Y166000D02*
D03*
X226000Y167000D02*
D03*
X215000Y263000D02*
D03*
X216000Y251000D02*
D03*
X172000Y323000D02*
D03*
X188000Y131000D02*
D03*
X285000Y357000D02*
D03*
X126000Y297000D02*
D03*
X310000Y313000D02*
D03*
X126000Y350000D02*
D03*
X196000Y313000D02*
D03*
X229000Y285000D02*
D03*
X262310Y282342D02*
D03*
X126000Y244000D02*
D03*
X310000Y234000D02*
D03*
X253000Y212000D02*
D03*
X238000D02*
D03*
X219000Y230000D02*
D03*
M02*
