G04*
G04 #@! TF.GenerationSoftware,Altium Limited,Altium Designer,22.5.1 (42)*
G04*
G04 Layer_Physical_Order=4*
G04 Layer_Color=16440176*
%FSLAX44Y44*%
%MOMM*%
G71*
G04*
G04 #@! TF.SameCoordinates,E804C49B-AF08-44B7-9E18-E1C260B47F38*
G04*
G04*
G04 #@! TF.FilePolarity,Positive*
G04*
G01*
G75*
%ADD24C,0.6000*%
G36*
X425000Y100000D02*
X75000D01*
Y115316D01*
X75875Y115739D01*
X77000Y115929D01*
X78168Y114761D01*
X80005Y114000D01*
X81995D01*
X83832Y114761D01*
X85239Y116168D01*
X86000Y118005D01*
Y119995D01*
X85239Y121832D01*
X83832Y123239D01*
X81995Y124000D01*
X80005D01*
X78168Y123239D01*
X77000Y122071D01*
X75875Y122261D01*
X75000Y122684D01*
Y127316D01*
X75875Y127739D01*
X77000Y127929D01*
X78168Y126761D01*
X80005Y126000D01*
X81995D01*
X83832Y126761D01*
X85239Y128168D01*
X86000Y130005D01*
Y131995D01*
X85239Y133832D01*
X83832Y135239D01*
X83401Y135418D01*
Y137582D01*
X83832Y137761D01*
X85239Y139168D01*
X86000Y141005D01*
Y142995D01*
X85239Y144832D01*
X83832Y146239D01*
X81995Y147000D01*
X80005D01*
X78168Y146239D01*
X77000Y145071D01*
X75875Y145261D01*
X75000Y145684D01*
Y150316D01*
X75875Y150739D01*
X77000Y150929D01*
X78168Y149761D01*
X80005Y149000D01*
X81995D01*
X83832Y149761D01*
X85239Y151168D01*
X86000Y153005D01*
Y154995D01*
X85239Y156832D01*
X83832Y158239D01*
X81995Y159000D01*
X80005D01*
X78168Y158239D01*
X77000Y157071D01*
X75875Y157261D01*
X75000Y157684D01*
Y345101D01*
X77000Y345929D01*
X77168Y345761D01*
X79005Y345000D01*
X80995D01*
X82832Y345761D01*
X84239Y347168D01*
X85000Y349005D01*
Y350995D01*
X84239Y352832D01*
X82832Y354239D01*
X80995Y355000D01*
X79005D01*
X77168Y354239D01*
X77000Y354071D01*
X75000Y354899D01*
Y360101D01*
X77000Y360929D01*
X77168Y360761D01*
X79005Y360000D01*
X80995D01*
X82832Y360761D01*
X84239Y362168D01*
X85000Y364005D01*
Y365995D01*
X84239Y367832D01*
X82832Y369239D01*
X80995Y370000D01*
X79005D01*
X77168Y369239D01*
X77000Y369071D01*
X75000Y369899D01*
Y375101D01*
X77000Y375929D01*
X77168Y375761D01*
X79005Y375000D01*
X80995D01*
X82832Y375761D01*
X84239Y377168D01*
X85000Y379005D01*
Y380995D01*
X84239Y382832D01*
X82832Y384239D01*
X80995Y385000D01*
X79005D01*
X77168Y384239D01*
X77000Y384071D01*
X75000Y384899D01*
Y390101D01*
X77000Y390929D01*
X77168Y390761D01*
X79005Y390000D01*
X80995D01*
X82832Y390761D01*
X84239Y392168D01*
X85000Y394005D01*
Y395995D01*
X84239Y397832D01*
X82832Y399239D01*
X80995Y400000D01*
X79005D01*
X77168Y399239D01*
X77000Y399071D01*
X75000Y399899D01*
Y425000D01*
X267101D01*
X267614Y424263D01*
X268123Y423000D01*
X267500Y421495D01*
Y419505D01*
X268261Y417668D01*
X269668Y416261D01*
X271505Y415500D01*
X273495D01*
X275332Y416261D01*
X276739Y417668D01*
X277500Y419505D01*
Y421495D01*
X276876Y423000D01*
X277386Y424263D01*
X277899Y425000D01*
X425000D01*
Y100000D01*
D02*
G37*
%LPC*%
G36*
X142995Y410000D02*
X141005D01*
X139168Y409239D01*
X137761Y407832D01*
X137000Y405995D01*
Y404005D01*
X137761Y402168D01*
X139168Y400761D01*
X141005Y400000D01*
X142995D01*
X144832Y400761D01*
X146239Y402168D01*
X147000Y404005D01*
Y405995D01*
X146239Y407832D01*
X144832Y409239D01*
X142995Y410000D01*
D02*
G37*
G36*
X105995Y400000D02*
X104005D01*
X102168Y399239D01*
X100761Y397832D01*
X100000Y395995D01*
Y394005D01*
X100761Y392168D01*
X102168Y390761D01*
X104005Y390000D01*
X105995D01*
X107832Y390761D01*
X109239Y392168D01*
X110000Y394005D01*
Y395995D01*
X109239Y397832D01*
X107832Y399239D01*
X105995Y400000D01*
D02*
G37*
G36*
X92995D02*
X91005D01*
X89168Y399239D01*
X87761Y397832D01*
X87000Y395995D01*
Y394005D01*
X87761Y392168D01*
X89168Y390761D01*
X91005Y390000D01*
X92995D01*
X94832Y390761D01*
X96239Y392168D01*
X97000Y394005D01*
Y395995D01*
X96239Y397832D01*
X94832Y399239D01*
X92995Y400000D01*
D02*
G37*
G36*
X350995Y394000D02*
X349005D01*
X347168Y393239D01*
X345761Y391832D01*
X345000Y389995D01*
Y388005D01*
X345761Y386168D01*
X347168Y384761D01*
X349005Y384000D01*
X350995D01*
X352832Y384761D01*
X354239Y386168D01*
X355000Y388005D01*
Y389995D01*
X354239Y391832D01*
X352832Y393239D01*
X350995Y394000D01*
D02*
G37*
G36*
X105995Y385000D02*
X104005D01*
X102168Y384239D01*
X100761Y382832D01*
X100000Y380995D01*
Y379005D01*
X100761Y377168D01*
X102168Y375761D01*
X104005Y375000D01*
X105995D01*
X107832Y375761D01*
X109239Y377168D01*
X110000Y379005D01*
Y380995D01*
X109239Y382832D01*
X107832Y384239D01*
X105995Y385000D01*
D02*
G37*
G36*
X92995D02*
X91005D01*
X89168Y384239D01*
X87761Y382832D01*
X87000Y380995D01*
Y379005D01*
X87761Y377168D01*
X89168Y375761D01*
X91005Y375000D01*
X92995D01*
X94832Y375761D01*
X96239Y377168D01*
X97000Y379005D01*
Y380995D01*
X96239Y382832D01*
X94832Y384239D01*
X92995Y385000D01*
D02*
G37*
G36*
X187995Y376000D02*
X186005D01*
X184168Y375239D01*
X182761Y373832D01*
X182000Y371995D01*
Y370005D01*
X182761Y368168D01*
X184168Y366761D01*
X186005Y366000D01*
X187995D01*
X189832Y366761D01*
X191239Y368168D01*
X192000Y370005D01*
Y371995D01*
X191239Y373832D01*
X189832Y375239D01*
X187995Y376000D01*
D02*
G37*
G36*
X142995D02*
X141005D01*
X139168Y375239D01*
X137761Y373832D01*
X137000Y371995D01*
Y370005D01*
X137761Y368168D01*
X139168Y366761D01*
X141005Y366000D01*
X142995D01*
X144832Y366761D01*
X146239Y368168D01*
X147000Y370005D01*
Y371995D01*
X146239Y373832D01*
X144832Y375239D01*
X142995Y376000D01*
D02*
G37*
G36*
X105995Y370000D02*
X104005D01*
X102168Y369239D01*
X100761Y367832D01*
X100000Y365995D01*
Y364005D01*
X100761Y362168D01*
X102168Y360761D01*
X104005Y360000D01*
X105995D01*
X107832Y360761D01*
X109239Y362168D01*
X110000Y364005D01*
Y365995D01*
X109239Y367832D01*
X107832Y369239D01*
X105995Y370000D01*
D02*
G37*
G36*
X93995D02*
X92005D01*
X90168Y369239D01*
X88761Y367832D01*
X88000Y365995D01*
Y364005D01*
X88761Y362168D01*
X90168Y360761D01*
X92005Y360000D01*
X93995D01*
X95832Y360761D01*
X97239Y362168D01*
X98000Y364005D01*
Y365995D01*
X97239Y367832D01*
X95832Y369239D01*
X93995Y370000D01*
D02*
G37*
G36*
X105995Y355000D02*
X104005D01*
X102168Y354239D01*
X100761Y352832D01*
X100000Y350995D01*
Y349005D01*
X100761Y347168D01*
X102168Y345761D01*
X104005Y345000D01*
X105995D01*
X107832Y345761D01*
X109239Y347168D01*
X110000Y349005D01*
Y350995D01*
X109239Y352832D01*
X107832Y354239D01*
X105995Y355000D01*
D02*
G37*
G36*
X93995D02*
X92005D01*
X90168Y354239D01*
X88761Y352832D01*
X88000Y350995D01*
Y349005D01*
X88761Y347168D01*
X90168Y345761D01*
X92005Y345000D01*
X93995D01*
X95832Y345761D01*
X97239Y347168D01*
X98000Y349005D01*
Y350995D01*
X97239Y352832D01*
X95832Y354239D01*
X93995Y355000D01*
D02*
G37*
G36*
X337995Y360000D02*
X336005D01*
X334168Y359239D01*
X332761Y357832D01*
X332000Y355995D01*
Y354005D01*
X332761Y352168D01*
X333929Y351000D01*
X332761Y349832D01*
X332000Y347995D01*
Y346005D01*
X332761Y344168D01*
X334168Y342761D01*
X336005Y342000D01*
X337995D01*
X339832Y342761D01*
X341239Y344168D01*
X342000Y346005D01*
Y347995D01*
X341239Y349832D01*
X340071Y351000D01*
X341239Y352168D01*
X342000Y354005D01*
Y355995D01*
X341239Y357832D01*
X339832Y359239D01*
X337995Y360000D01*
D02*
G37*
G36*
X172995Y328000D02*
X171005D01*
X169168Y327239D01*
X167761Y325832D01*
X167000Y323995D01*
Y322005D01*
X167761Y320168D01*
X169168Y318761D01*
X171005Y318000D01*
X172995D01*
X174832Y318761D01*
X176239Y320168D01*
X177000Y322005D01*
Y323995D01*
X176239Y325832D01*
X174832Y327239D01*
X172995Y328000D01*
D02*
G37*
G36*
X247495Y319500D02*
X245506D01*
X243668Y318739D01*
X242261Y317332D01*
X241500Y315495D01*
Y313505D01*
X242261Y311668D01*
X243668Y310261D01*
X245506Y309500D01*
X247495D01*
X249332Y310261D01*
X250739Y311668D01*
X251500Y313505D01*
Y315495D01*
X250739Y317332D01*
X249332Y318739D01*
X247495Y319500D01*
D02*
G37*
G36*
X396995Y319000D02*
X395005D01*
X393168Y318239D01*
X391761Y316832D01*
X391000Y314995D01*
Y313005D01*
X391761Y311168D01*
X393168Y309761D01*
X395005Y309000D01*
X396995D01*
X398832Y309761D01*
X400239Y311168D01*
X401000Y313005D01*
Y314995D01*
X400239Y316832D01*
X398832Y318239D01*
X396995Y319000D01*
D02*
G37*
G36*
X364995D02*
X363005D01*
X361168Y318239D01*
X359761Y316832D01*
X359000Y314995D01*
Y313005D01*
X359761Y311168D01*
X361168Y309761D01*
X363005Y309000D01*
X364995D01*
X366832Y309761D01*
X368239Y311168D01*
X369000Y313005D01*
Y314995D01*
X368239Y316832D01*
X366832Y318239D01*
X364995Y319000D01*
D02*
G37*
G36*
X196995Y318000D02*
X195005D01*
X193168Y317239D01*
X191761Y315832D01*
X191000Y313995D01*
Y312005D01*
X191761Y310168D01*
X193168Y308761D01*
X195005Y308000D01*
X196995D01*
X198832Y308761D01*
X200239Y310168D01*
X201000Y312005D01*
Y313995D01*
X200239Y315832D01*
X198832Y317239D01*
X196995Y318000D01*
D02*
G37*
G36*
X126995Y302000D02*
X125006D01*
X123168Y301239D01*
X121761Y299832D01*
X121000Y297995D01*
Y296005D01*
X121761Y294168D01*
X123168Y292761D01*
X125006Y292000D01*
X126995D01*
X128832Y292761D01*
X130239Y294168D01*
X131000Y296005D01*
Y297995D01*
X130239Y299832D01*
X128832Y301239D01*
X126995Y302000D01*
D02*
G37*
G36*
X338995Y309000D02*
X337005D01*
X335168Y308239D01*
X333761Y306832D01*
X333000Y304995D01*
Y303005D01*
X333761Y301168D01*
X334929Y300000D01*
X333761Y298832D01*
X333000Y296995D01*
Y295005D01*
X333761Y293168D01*
X335168Y291761D01*
X337005Y291000D01*
X338995D01*
X340832Y291761D01*
X342239Y293168D01*
X343000Y295005D01*
Y296995D01*
X342239Y298832D01*
X341071Y300000D01*
X342239Y301168D01*
X343000Y303005D01*
Y304995D01*
X342239Y306832D01*
X340832Y308239D01*
X338995Y309000D01*
D02*
G37*
G36*
X396995Y297000D02*
X395005D01*
X393168Y296239D01*
X391761Y294832D01*
X391000Y292995D01*
Y291005D01*
X391761Y289168D01*
X393168Y287761D01*
X395005Y287000D01*
X396995D01*
X398832Y287761D01*
X400239Y289168D01*
X401000Y291005D01*
Y292995D01*
X400239Y294832D01*
X398832Y296239D01*
X396995Y297000D01*
D02*
G37*
G36*
X364995D02*
X363005D01*
X361168Y296239D01*
X359761Y294832D01*
X359000Y292995D01*
Y291005D01*
X359761Y289168D01*
X361168Y287761D01*
X363005Y287000D01*
X364995D01*
X366832Y287761D01*
X368239Y289168D01*
X369000Y291005D01*
Y292995D01*
X368239Y294832D01*
X366832Y296239D01*
X364995Y297000D01*
D02*
G37*
G36*
X229995Y290000D02*
X228005D01*
X226168Y289239D01*
X224761Y287832D01*
X224000Y285995D01*
Y284005D01*
X224761Y282168D01*
X226168Y280761D01*
X228005Y280000D01*
X229995D01*
X231832Y280761D01*
X233239Y282168D01*
X234000Y284005D01*
Y285995D01*
X233239Y287832D01*
X231832Y289239D01*
X229995Y290000D01*
D02*
G37*
G36*
X252995Y292000D02*
X251005D01*
X249168Y291239D01*
X247761Y289832D01*
X247000Y287995D01*
Y286005D01*
X247761Y284168D01*
X249168Y282761D01*
X251005Y282000D01*
X252995D01*
X254832Y282761D01*
X255310Y283239D01*
X257310Y282410D01*
Y281347D01*
X258071Y279510D01*
X259478Y278103D01*
X261315Y277342D01*
X263305D01*
X265142Y278103D01*
X266549Y279510D01*
X267310Y281347D01*
Y283337D01*
X266549Y285174D01*
X265142Y286581D01*
X263305Y287342D01*
X261315D01*
X259478Y286581D01*
X259000Y286103D01*
X257000Y286932D01*
Y287995D01*
X256239Y289832D01*
X254832Y291239D01*
X252995Y292000D01*
D02*
G37*
G36*
X386995Y286000D02*
X385005D01*
X383168Y285239D01*
X381761Y283832D01*
X381000Y281995D01*
Y280005D01*
X381761Y278168D01*
X383168Y276761D01*
X385005Y276000D01*
X386995D01*
X388832Y276761D01*
X390239Y278168D01*
X391000Y280005D01*
Y281995D01*
X390239Y283832D01*
X388832Y285239D01*
X386995Y286000D01*
D02*
G37*
G36*
X374995D02*
X373005D01*
X371168Y285239D01*
X369761Y283832D01*
X369000Y281995D01*
Y280005D01*
X369761Y278168D01*
X371168Y276761D01*
X373005Y276000D01*
X374995D01*
X376832Y276761D01*
X378239Y278168D01*
X379000Y280005D01*
Y281995D01*
X378239Y283832D01*
X376832Y285239D01*
X374995Y286000D01*
D02*
G37*
G36*
X338995Y282333D02*
X337005D01*
X335168Y281572D01*
X333761Y280166D01*
X333000Y278328D01*
Y276339D01*
X333761Y274501D01*
X334929Y273333D01*
X333761Y272166D01*
X333000Y270328D01*
Y268339D01*
X333761Y266501D01*
X335168Y265095D01*
X337005Y264333D01*
X338995D01*
X340832Y265095D01*
X342239Y266501D01*
X343000Y268339D01*
Y270328D01*
X342239Y272166D01*
X341071Y273333D01*
X342239Y274501D01*
X343000Y276339D01*
Y278328D01*
X342239Y280166D01*
X340832Y281572D01*
X338995Y282333D01*
D02*
G37*
G36*
X215995Y268000D02*
X214005D01*
X212168Y267239D01*
X210761Y265832D01*
X210000Y263995D01*
Y262005D01*
X210761Y260168D01*
X212168Y258761D01*
X214005Y258000D01*
X215995D01*
X217832Y258761D01*
X219239Y260168D01*
X220000Y262005D01*
Y263995D01*
X219239Y265832D01*
X217832Y267239D01*
X215995Y268000D01*
D02*
G37*
G36*
X319995Y266000D02*
X318005D01*
X316168Y265239D01*
X314761Y263832D01*
X314000Y261995D01*
Y260005D01*
X314761Y258168D01*
X316168Y256761D01*
X318005Y256000D01*
X319995D01*
X321832Y256761D01*
X323239Y258168D01*
X324000Y260005D01*
Y261995D01*
X323239Y263832D01*
X321832Y265239D01*
X319995Y266000D01*
D02*
G37*
G36*
X264646Y263116D02*
X262656D01*
X260819Y262355D01*
X259412Y260948D01*
X258651Y259111D01*
Y257122D01*
X259412Y255284D01*
X257854Y254217D01*
X256832Y255239D01*
X254995Y256000D01*
X253005D01*
X251168Y255239D01*
X249761Y253832D01*
X249000Y251995D01*
Y250005D01*
X249761Y248168D01*
X251168Y246761D01*
X253005Y246000D01*
X254995D01*
X256832Y246761D01*
X258239Y248168D01*
X259000Y250005D01*
Y251995D01*
X258239Y253832D01*
X259797Y254899D01*
X260819Y253877D01*
X262656Y253116D01*
X264646D01*
X266483Y253877D01*
X267890Y255284D01*
X268651Y257122D01*
Y259111D01*
X267890Y260948D01*
X266483Y262355D01*
X264646Y263116D01*
D02*
G37*
G36*
X244646D02*
X242656D01*
X240819Y262355D01*
X239412Y260948D01*
X238651Y259111D01*
Y257122D01*
X239412Y255284D01*
X240819Y253877D01*
X242656Y253116D01*
X244646D01*
X246483Y253877D01*
X247890Y255284D01*
X248651Y257122D01*
Y259111D01*
X247890Y260948D01*
X246483Y262355D01*
X244646Y263116D01*
D02*
G37*
G36*
X126995Y249000D02*
X125005D01*
X123168Y248239D01*
X121761Y246832D01*
X121000Y244995D01*
Y243005D01*
X121761Y241168D01*
X123168Y239761D01*
X125005Y239000D01*
X126995D01*
X128832Y239761D01*
X130239Y241168D01*
X131000Y243005D01*
Y244995D01*
X130239Y246832D01*
X128832Y248239D01*
X126995Y249000D01*
D02*
G37*
G36*
X338995Y255667D02*
X337005D01*
X335168Y254905D01*
X333761Y253499D01*
X333000Y251661D01*
Y249672D01*
X333761Y247834D01*
X334929Y246667D01*
X333761Y245499D01*
X333000Y243661D01*
Y241672D01*
X333761Y239834D01*
X335168Y238428D01*
X337005Y237667D01*
X338995D01*
X340832Y238428D01*
X342239Y239834D01*
X343000Y241672D01*
Y243661D01*
X342239Y245499D01*
X341071Y246667D01*
X342239Y247834D01*
X343000Y249672D01*
Y251661D01*
X342239Y253499D01*
X340832Y254905D01*
X338995Y255667D01*
D02*
G37*
G36*
X175995Y253000D02*
X174005D01*
X172168Y252239D01*
X170761Y250832D01*
X170000Y248995D01*
Y247005D01*
X170761Y245168D01*
X171929Y244000D01*
X170761Y242832D01*
X170000Y240995D01*
Y239005D01*
X170761Y237168D01*
X172168Y235761D01*
X174005Y235000D01*
X175995D01*
X177832Y235761D01*
X179239Y237168D01*
X180000Y239005D01*
Y240995D01*
X179239Y242832D01*
X178071Y244000D01*
X179239Y245168D01*
X180000Y247005D01*
Y248995D01*
X179239Y250832D01*
X177832Y252239D01*
X175995Y253000D01*
D02*
G37*
G36*
X265646Y243116D02*
X263657D01*
X261819Y242355D01*
X260412Y240948D01*
X259651Y239111D01*
Y237122D01*
X260412Y235284D01*
X261819Y233877D01*
X263657Y233116D01*
X265646D01*
X267483Y233877D01*
X268890Y235284D01*
X269651Y237122D01*
Y239111D01*
X268890Y240948D01*
X267483Y242355D01*
X265646Y243116D01*
D02*
G37*
G36*
X243646D02*
X241656D01*
X239819Y242355D01*
X238412Y240948D01*
X237651Y239111D01*
Y237122D01*
X238412Y235284D01*
X239819Y233877D01*
X241656Y233116D01*
X243646D01*
X245483Y233877D01*
X246890Y235284D01*
X247651Y237122D01*
Y239111D01*
X246890Y240948D01*
X245483Y242355D01*
X243646Y243116D01*
D02*
G37*
G36*
X310995Y239000D02*
X309006D01*
X307168Y238239D01*
X305761Y236832D01*
X305000Y234995D01*
Y233005D01*
X305761Y231168D01*
X307168Y229761D01*
X309006Y229000D01*
X310995D01*
X312832Y229761D01*
X314239Y231168D01*
X315000Y233005D01*
Y234995D01*
X314239Y236832D01*
X312832Y238239D01*
X310995Y239000D01*
D02*
G37*
G36*
X219995Y235000D02*
X218005D01*
X216168Y234239D01*
X214761Y232832D01*
X214000Y230995D01*
Y229005D01*
X214761Y227168D01*
X216168Y225761D01*
X218005Y225000D01*
X219995D01*
X221832Y225761D01*
X223239Y227168D01*
X224000Y229005D01*
Y230995D01*
X223239Y232832D01*
X221832Y234239D01*
X219995Y235000D01*
D02*
G37*
G36*
X281995Y224000D02*
X280005D01*
X278168Y223239D01*
X276761Y221832D01*
X276000Y219995D01*
Y218005D01*
X276761Y216168D01*
X278168Y214761D01*
X280005Y214000D01*
X281995D01*
X283832Y214761D01*
X285239Y216168D01*
X286000Y218005D01*
Y219995D01*
X285239Y221832D01*
X283832Y223239D01*
X281995Y224000D01*
D02*
G37*
G36*
X350995Y228000D02*
X349006D01*
X347168Y227239D01*
X345761Y225832D01*
X345000Y223995D01*
Y222005D01*
X345761Y220168D01*
X346929Y219000D01*
X345761Y217832D01*
X345000Y215994D01*
Y214005D01*
X345761Y212168D01*
X347168Y210761D01*
X349006Y210000D01*
X350995D01*
X352832Y210761D01*
X354239Y212168D01*
X355000Y214005D01*
Y215994D01*
X354239Y217832D01*
X353071Y219000D01*
X354239Y220168D01*
X355000Y222005D01*
Y223995D01*
X354239Y225832D01*
X352832Y227239D01*
X350995Y228000D01*
D02*
G37*
G36*
X253995Y217000D02*
X252005D01*
X250168Y216239D01*
X248761Y214832D01*
X248000Y212995D01*
Y211005D01*
X248761Y209168D01*
X250168Y207761D01*
X252005Y207000D01*
X253995D01*
X255832Y207761D01*
X257239Y209168D01*
X258000Y211005D01*
Y212995D01*
X257239Y214832D01*
X255832Y216239D01*
X253995Y217000D01*
D02*
G37*
G36*
X238995D02*
X237005D01*
X235168Y216239D01*
X233761Y214832D01*
X233000Y212995D01*
Y211005D01*
X233761Y209168D01*
X235168Y207761D01*
X237005Y207000D01*
X238995D01*
X240832Y207761D01*
X242239Y209168D01*
X243000Y211005D01*
Y212995D01*
X242239Y214832D01*
X240832Y216239D01*
X238995Y217000D01*
D02*
G37*
G36*
X396995Y213000D02*
X395005D01*
X393168Y212239D01*
X391761Y210832D01*
X391000Y208995D01*
Y207005D01*
X391761Y205168D01*
X393168Y203761D01*
X395005Y203000D01*
X396995D01*
X398832Y203761D01*
X400239Y205168D01*
X401000Y207005D01*
Y208995D01*
X400239Y210832D01*
X398832Y212239D01*
X396995Y213000D01*
D02*
G37*
G36*
X364995D02*
X363005D01*
X361168Y212239D01*
X359761Y210832D01*
X359000Y208995D01*
Y207005D01*
X359761Y205168D01*
X361168Y203761D01*
X363005Y203000D01*
X364995D01*
X366832Y203761D01*
X368239Y205168D01*
X369000Y207005D01*
Y208995D01*
X368239Y210832D01*
X366832Y212239D01*
X364995Y213000D01*
D02*
G37*
G36*
X310995Y201000D02*
X309005D01*
X307168Y200239D01*
X305761Y198832D01*
X305000Y196995D01*
Y195005D01*
X305761Y193168D01*
X307168Y191761D01*
X309005Y191000D01*
X310995D01*
X312832Y191761D01*
X314239Y193168D01*
X315000Y195005D01*
Y196995D01*
X314239Y198832D01*
X312832Y200239D01*
X310995Y201000D01*
D02*
G37*
G36*
X337495Y200500D02*
X335505D01*
X333668Y199739D01*
X332261Y198332D01*
X331500Y196495D01*
Y194505D01*
X332261Y192668D01*
X333668Y191261D01*
X335505Y190500D01*
X337495D01*
X339332Y191261D01*
X340739Y192668D01*
X341500Y194505D01*
Y196495D01*
X340739Y198332D01*
X339332Y199739D01*
X337495Y200500D01*
D02*
G37*
G36*
X109995Y213000D02*
X108005D01*
X106168Y212239D01*
X104761Y210832D01*
X104000Y208995D01*
Y207005D01*
X104761Y205168D01*
X105122Y204807D01*
X105994Y203500D01*
X105122Y202193D01*
X104761Y201832D01*
X104000Y199995D01*
Y198005D01*
X104761Y196168D01*
X105929Y195000D01*
X104761Y193832D01*
X104000Y191995D01*
Y190005D01*
X104761Y188168D01*
X106168Y186761D01*
X108005Y186000D01*
X109995D01*
X111832Y186761D01*
X113239Y188168D01*
X114000Y190005D01*
Y191995D01*
X113239Y193832D01*
X112071Y195000D01*
X113239Y196168D01*
X114000Y198005D01*
Y199995D01*
X113239Y201832D01*
X112878Y202193D01*
X112007Y203500D01*
X112878Y204807D01*
X113239Y205168D01*
X114000Y207005D01*
Y208995D01*
X113239Y210832D01*
X111832Y212239D01*
X109995Y213000D01*
D02*
G37*
G36*
X396995Y191000D02*
X395005D01*
X393168Y190239D01*
X391761Y188832D01*
X391000Y186994D01*
Y185005D01*
X391761Y183168D01*
X393168Y181761D01*
X395005Y181000D01*
X396995D01*
X398832Y181761D01*
X400239Y183168D01*
X401000Y185005D01*
Y186994D01*
X400239Y188832D01*
X398832Y190239D01*
X396995Y191000D01*
D02*
G37*
G36*
X364995D02*
X363005D01*
X361168Y190239D01*
X359761Y188832D01*
X359000Y186994D01*
Y185005D01*
X359761Y183168D01*
X361168Y181761D01*
X363005Y181000D01*
X364995D01*
X366832Y181761D01*
X368239Y183168D01*
X369000Y185005D01*
Y186994D01*
X368239Y188832D01*
X366832Y190239D01*
X364995Y191000D01*
D02*
G37*
G36*
X386995Y180000D02*
X385005D01*
X383168Y179239D01*
X381761Y177832D01*
X381000Y175994D01*
Y174005D01*
X381761Y172168D01*
X383168Y170761D01*
X385005Y170000D01*
X386995D01*
X388832Y170761D01*
X390239Y172168D01*
X391000Y174005D01*
Y175994D01*
X390239Y177832D01*
X388832Y179239D01*
X386995Y180000D01*
D02*
G37*
G36*
X374995D02*
X373005D01*
X371168Y179239D01*
X369761Y177832D01*
X369000Y175994D01*
Y174005D01*
X369761Y172168D01*
X371168Y170761D01*
X373005Y170000D01*
X374995D01*
X376832Y170761D01*
X378239Y172168D01*
X379000Y174005D01*
Y175994D01*
X378239Y177832D01*
X376832Y179239D01*
X374995Y180000D01*
D02*
G37*
G36*
X205995Y178000D02*
X204005D01*
X202168Y177239D01*
X200761Y175832D01*
X200000Y173995D01*
Y172005D01*
X200761Y170168D01*
X202168Y168761D01*
X204005Y168000D01*
X205995D01*
X207832Y168761D01*
X209239Y170168D01*
X210000Y172005D01*
Y173995D01*
X209239Y175832D01*
X207832Y177239D01*
X205995Y178000D01*
D02*
G37*
G36*
X139995Y171000D02*
X138005D01*
X136168Y170239D01*
X134761Y168832D01*
X134000Y166995D01*
Y165005D01*
X134761Y163168D01*
X136168Y161761D01*
X138005Y161000D01*
X139995D01*
X141832Y161761D01*
X143239Y163168D01*
X144000Y165005D01*
Y166995D01*
X143239Y168832D01*
X141832Y170239D01*
X139995Y171000D01*
D02*
G37*
G36*
X249995Y170000D02*
X248005D01*
X246168Y169239D01*
X244761Y167832D01*
X244000Y165995D01*
Y164005D01*
X244761Y162168D01*
X246168Y160761D01*
X248005Y160000D01*
X249995D01*
X251832Y160761D01*
X253239Y162168D01*
X254000Y164005D01*
Y165995D01*
X253239Y167832D01*
X251832Y169239D01*
X249995Y170000D01*
D02*
G37*
G36*
X105995Y159000D02*
X104005D01*
X102168Y158239D01*
X100761Y156832D01*
X100000Y154995D01*
Y153005D01*
X100761Y151168D01*
X102168Y149761D01*
X104005Y149000D01*
X105995D01*
X107832Y149761D01*
X109239Y151168D01*
X110000Y153005D01*
Y154995D01*
X109239Y156832D01*
X107832Y158239D01*
X105995Y159000D01*
D02*
G37*
G36*
X93995D02*
X92005D01*
X90168Y158239D01*
X88761Y156832D01*
X88000Y154995D01*
Y153005D01*
X88761Y151168D01*
X90168Y149761D01*
X92005Y149000D01*
X93995D01*
X95832Y149761D01*
X97239Y151168D01*
X98000Y153005D01*
Y154995D01*
X97239Y156832D01*
X95832Y158239D01*
X93995Y159000D01*
D02*
G37*
G36*
X188995Y136000D02*
X187005D01*
X185168Y135239D01*
X183761Y133832D01*
X183000Y131995D01*
Y130005D01*
X183761Y128168D01*
X185168Y126761D01*
X187005Y126000D01*
X188995D01*
X190832Y126761D01*
X192239Y128168D01*
X193000Y130005D01*
Y131995D01*
X192239Y133832D01*
X190832Y135239D01*
X188995Y136000D01*
D02*
G37*
G36*
X142995D02*
X141005D01*
X139168Y135239D01*
X137761Y133832D01*
X137000Y131995D01*
Y130005D01*
X137761Y128168D01*
X139168Y126761D01*
X141005Y126000D01*
X142995D01*
X144832Y126761D01*
X146239Y128168D01*
X147000Y130005D01*
Y131995D01*
X146239Y133832D01*
X144832Y135239D01*
X142995Y136000D01*
D02*
G37*
G36*
X105995Y147000D02*
X104005D01*
X102168Y146239D01*
X100761Y144832D01*
X100000Y142995D01*
Y141005D01*
X100761Y139168D01*
X102168Y137761D01*
X102599Y137582D01*
Y135418D01*
X102168Y135239D01*
X100761Y133832D01*
X100000Y131995D01*
Y130005D01*
X100761Y128168D01*
X102168Y126761D01*
X104005Y126000D01*
X105995D01*
X107832Y126761D01*
X109239Y128168D01*
X110000Y130005D01*
Y131995D01*
X109239Y133832D01*
X107832Y135239D01*
X107401Y135418D01*
Y137582D01*
X107832Y137761D01*
X109239Y139168D01*
X110000Y141005D01*
Y142995D01*
X109239Y144832D01*
X107832Y146239D01*
X105995Y147000D01*
D02*
G37*
G36*
X93995D02*
X92005D01*
X90168Y146239D01*
X88761Y144832D01*
X88000Y142995D01*
Y141005D01*
X88761Y139168D01*
X90168Y137761D01*
X90599Y137582D01*
Y135418D01*
X90168Y135239D01*
X88761Y133832D01*
X88000Y131995D01*
Y130005D01*
X88761Y128168D01*
X90168Y126761D01*
X92005Y126000D01*
X93995D01*
X95832Y126761D01*
X97239Y128168D01*
X98000Y130005D01*
Y131995D01*
X97239Y133832D01*
X95832Y135239D01*
X95401Y135418D01*
Y137582D01*
X95832Y137761D01*
X97239Y139168D01*
X98000Y141005D01*
Y142995D01*
X97239Y144832D01*
X95832Y146239D01*
X93995Y147000D01*
D02*
G37*
G36*
X105995Y124000D02*
X104005D01*
X102168Y123239D01*
X100761Y121832D01*
X100000Y119995D01*
Y118005D01*
X100761Y116168D01*
X102168Y114761D01*
X104005Y114000D01*
X105995D01*
X107832Y114761D01*
X109239Y116168D01*
X110000Y118005D01*
Y119995D01*
X109239Y121832D01*
X107832Y123239D01*
X105995Y124000D01*
D02*
G37*
G36*
X93995D02*
X92005D01*
X90168Y123239D01*
X88761Y121832D01*
X88000Y119995D01*
Y118005D01*
X88761Y116168D01*
X90168Y114761D01*
X92005Y114000D01*
X93995D01*
X95832Y114761D01*
X97239Y116168D01*
X98000Y118005D01*
Y119995D01*
X97239Y121832D01*
X95832Y123239D01*
X93995Y124000D01*
D02*
G37*
G36*
X368995Y123000D02*
X367005D01*
X365168Y122239D01*
X363761Y120832D01*
X363000Y118995D01*
Y117005D01*
X363761Y115168D01*
X365168Y113761D01*
X367005Y113000D01*
X368995D01*
X370832Y113761D01*
X372239Y115168D01*
X373000Y117005D01*
Y118995D01*
X372239Y120832D01*
X370832Y122239D01*
X368995Y123000D01*
D02*
G37*
%LPD*%
D24*
X297000Y327000D02*
D03*
X125000Y275000D02*
D03*
X126000Y323500D02*
D03*
X273000Y166000D02*
D03*
X226000Y167000D02*
D03*
X216000Y251000D02*
D03*
X285000Y357000D02*
D03*
X310000Y313000D02*
D03*
X126000Y350000D02*
D03*
M02*
