M48
;Layer_Color=9474304
;FILE_FORMAT=4:4
METRIC,LZ
;TYPE=PLATED
T1F00S00C0.3000
T2F00S00C1.5000
%
T01
X00081Y00119
Y00131
Y00142
Y00154
X0008Y0035
Y00365
Y0038
Y00395
X00092
X00105
Y0038
X00092
X00093Y00365
X00105
Y0035
X00093
X00126Y0035
Y003235
X00126Y00297
X00125Y00275
X00126Y00244
X00175Y0024
Y00248
X00216Y00251
X00215Y00263
X00243651Y00258116
X00254Y00251
X00263651Y00258116
X00264651Y00238116
X00242651
X00238Y00212
X00253
X00281Y00219
X0031Y00234
X00319Y00261
X00338Y00269333
Y00277333
Y00296
Y00304
X00364Y00314
Y00292
X00374Y00281
X00386
X00396Y00292
Y00314
X0031Y00313
X00297Y00327
X00285Y00357
X00337Y00355
Y00347
X0035Y00389
X002725Y004205
X00167Y00438
Y00446
Y00454
X00142Y00405
Y00371
X00187
X00172Y00323
X00196Y00313
X002465Y003145
X00252Y00287
X0026231Y00282342
X00229Y00285
X00219Y0023
X00226Y00167
X00249Y00165
X00273Y00166
X0031Y00196
X003365Y001955
X0035Y00215
Y00223
X00364Y00208
Y00186
X00374Y00175
X00386
X00396Y00186
Y00208
X00338Y00242667
Y00250667
X00368Y00118
X00188Y00131
X00142
X00105
Y00142
X00093
Y00131
Y00119
X00105
Y00154
X00093
X00109Y00191
Y00199
Y00208
X00139Y00166
X00205Y00173
T02
X0005Y002
Y003
X0045
Y0036
Y002
Y0014
M30
